<?xml version="1.0" encoding="UTF-8"?>
<svg version="1.1" xmlns="http://www.w3.org/2000/svg" width="256" height="256">
<path d="M0 0 C0.99 0 1.98 0 3 0 C5.49257297 8.92341122 6.99444209 17.79457445 8 27 C8.08830078 27.7425 8.17660156 28.485 8.26757812 29.25 C9.25151618 38.43814093 9.24354951 47.64457006 9.25 56.875 C9.25067474 57.74305267 9.25134949 58.61110535 9.25204468 59.50546265 C9.23596393 72.53432374 8.8836181 85.23893491 6 98 C5.82839355 98.76957031 5.65678711 99.53914063 5.47998047 100.33203125 C2.91020875 111.41029644 -0.88808566 121.84556382 -6 132 C-6.3192041 132.63534668 -6.6384082 133.27069336 -6.96728516 133.92529297 C-17.82365346 154.92569756 -35.35168035 167.79745093 -57.58203125 175.19140625 C-75.6375982 180.53977514 -96.66009563 180.57182797 -114 173 C-114.93457031 172.61585938 -115.86914062 172.23171875 -116.83203125 171.8359375 C-133.38878276 164.35869488 -145.99868599 149.22601825 -152.3515625 132.42578125 C-158.1460562 114.14602955 -158.04854464 94.0828485 -149.43359375 76.6484375 C-139.71491193 58.69403348 -125.67698681 46.30641316 -106 40 C-96.59047417 37.45387952 -86.86467605 37.37547398 -77.18408203 36.97094727 C-52.54978577 35.90888634 -28.26267903 30.86852049 -10 13 C-7.61500567 10.15689457 -5.3877033 7.20537303 -3.25952148 4.16577148 C-2.23734827 2.72916322 -1.12481155 1.35774827 0 0 Z M-14 117 C-15.50594681 118.61949042 -17.00460668 120.24575974 -18.5 121.875 C-19.3353125 122.77992188 -20.170625 123.68484375 -21.03125 124.6171875 C-23.21231559 126.74181632 -23.21231559 126.74181632 -23 129 C-23.58652344 129.27199219 -24.17304688 129.54398438 -24.77734375 129.82421875 C-26.95688333 130.97719136 -28.65909709 132.25442289 -30.5625 133.8125 C-40.7120191 141.55718901 -52.33094678 145.02065263 -65 144 C-76.75100798 141.96155984 -84.08282187 135.43303447 -91.54296875 126.48828125 C-95.8377864 122.13883953 -100.57736702 120.36028105 -106.5625 119.875 C-111.7949474 120.14333064 -116.75876481 122.0305851 -120.70703125 125.5 C-124.57597852 129.95988158 -125.3869335 133.90179254 -125.2578125 139.6015625 C-124.67508308 145.02271196 -122.68023036 148.45790939 -118.671875 152.13671875 C-104.77709936 162.87539535 -88.15507219 165.3485699 -70.99804688 163.2890625 C-53.85129219 160.80839809 -38.76522708 152.67024454 -27 140 C-26.38382812 139.37738281 -25.76765625 138.75476563 -25.1328125 138.11328125 C-19.74934319 132.45555973 -15.74181505 126.35357092 -13 119 C-13.495 118.01 -13.495 118.01 -14 117 Z " fill="#0393D8" transform="translate(201,66)"/>
<path d="M0 0 C21.00518354 17.62213716 21.00518354 17.62213716 22.46875 27.76953125 C18.83237583 27.20458034 17.42850017 25.93530483 15.03125 23.20703125 C3.56413564 11.42372807 -14.36239149 3.81081033 -30.81274414 3.52783203 C-44.14490552 3.48060904 -54.28063169 5.33399419 -64.46875 14.515625 C-72.43040584 22.76897944 -74.99938475 33.39715652 -77.01245117 44.36279297 C-78.56909795 52.3737208 -81.65385687 57.82516102 -88.453125 62.546875 C-94.18075306 65.91670128 -100.22358501 66.62639047 -106.69140625 65.33984375 C-114.12486666 63.27428528 -119.38493437 59.12314942 -123.53125 52.64453125 C-126.41267473 43.92290339 -125.17099538 35.7759585 -121.21875 27.70703125 C-117.146312 19.91623989 -111.82865376 13.83100923 -105.53125 7.76953125 C-104.80164063 7.0321875 -104.07203125 6.29484375 -103.3203125 5.53515625 C-76.54575216 -20.1445336 -29.2980698 -23.5430918 0 0 Z " fill="#0666B2" transform="translate(174.53125,18.23046875)"/>
<path d="M0 0 C0.99 0 1.98 0 3 0 C5.49257297 8.92341122 6.99444209 17.79457445 8 27 C8.08830078 27.7425 8.17660156 28.485 8.26757812 29.25 C9.25151618 38.43814093 9.24354951 47.64457006 9.25 56.875 C9.25067474 57.74305267 9.25134949 58.61110535 9.25204468 59.50546265 C9.23596393 72.53432374 8.8836181 85.23893491 6 98 C5.82839355 98.76957031 5.65678711 99.53914063 5.47998047 100.33203125 C2.91020875 111.41029644 -0.88808566 121.84556382 -6 132 C-6.3192041 132.63534668 -6.6384082 133.27069336 -6.96728516 133.92529297 C-17.82365346 154.92569756 -35.35168035 167.79745093 -57.58203125 175.19140625 C-75.6375982 180.53977514 -96.66009563 180.57182797 -114 173 C-114.93457031 172.61585938 -115.86914062 172.23171875 -116.83203125 171.8359375 C-133.42761066 164.3411597 -145.07200825 149.61314067 -152.19921875 133.24609375 C-153.58657065 129.43558423 -154.22736062 126.86232362 -153 123 C-153 123.99 -153 124.98 -153 126 C-152.34 126 -151.68 126 -151 126 C-150.7525 126.94875 -150.505 127.8975 -150.25 128.875 C-149.63125 130.421875 -149.63125 130.421875 -149 132 C-148.0409375 132.37125 -148.0409375 132.37125 -147.0625 132.75 C-143.7843645 134.73674879 -143.6682394 137.51763093 -142.75 141.125 C-142.57726562 141.78371094 -142.40453125 142.44242188 -142.2265625 143.12109375 C-141.80327422 144.74369882 -141.39970259 146.37142454 -141 148 C-140.34 148 -139.68 148 -139 148 C-139 148.66 -139 149.32 -139 150 C-137.35 150 -135.7 150 -134 150 C-134 150.66 -134 151.32 -134 152 C-133.34 152 -132.68 152 -132 152 C-132 152.66 -132 153.32 -132 154 C-131.01 154 -130.02 154 -129 154 C-129 155.65 -129 157.3 -129 159 C-124.74268432 159.40749675 -124.74268432 159.40749675 -121.125 157.5 C-120.568125 156.7575 -120.568125 156.7575 -120 156 C-121.32 156 -122.64 156 -124 156 C-124 155.34 -124 154.68 -124 154 C-124.66 154 -125.32 154 -126 154 C-126.47985967 152.72942818 -126.9588593 151.45853152 -127.4375 150.1875 C-127.70433594 149.47980469 -127.97117187 148.77210938 -128.24609375 148.04296875 C-130.65985015 141.5020641 -131.02600196 133.75333986 -129 127 C-126.45285085 125.13209062 -125.19131 125 -122 125 C-121.814375 124.401875 -121.62875 123.80375 -121.4375 123.1875 C-119.31028989 119.95044113 -116.64347224 118.87856777 -113 118 C-108.11044268 117.61325535 -102.65072237 117.19430192 -98 119 C-97.67 119.99 -97.34 120.98 -97 122 C-97.75023437 121.88140625 -98.50046875 121.7628125 -99.2734375 121.640625 C-106.78553826 120.69451659 -112.42090462 121.03264381 -119 125 C-122.71518812 128.71518812 -124.13722086 131.9752519 -124.3125 137.1875 C-124.188526 142.29522876 -123.29335396 146.0149631 -120 150 C-107.4804697 160.78454027 -92.10396046 163.94206959 -75.9140625 162.74609375 C-59.94392837 161.22422498 -46.22462205 155.70175328 -33.875 145.41796875 C-32 144 -32 144 -29 143 C-28.29791012 141.68497452 -27.63521134 140.34860253 -27 139 C-25.94700378 137.80588058 -24.86066233 136.64068024 -23.75 135.5 C-19.32480023 130.60166566 -16.71511016 124.96727508 -14 119 C-16.45406596 121.38589746 -18.78794189 123.72804094 -20.89453125 126.4296875 C-28.64158019 135.88712387 -40.99408326 142.81710605 -53 145 C-60.71311708 145.60603063 -67.83644391 145.11086699 -75 142 C-75.66 141.34 -76.32 140.68 -77 140 C-74.36 140.33 -71.72 140.66 -69 141 C-69 140.34 -69 139.68 -69 139 C-68.21625 139.33 -67.4325 139.66 -66.625 140 C-59.91392525 141.85133096 -53.46796349 141.72335305 -47 139 C-47 138.34 -47 137.68 -47 137 C-41.58892617 134.1057047 -41.58892617 134.1057047 -38.5625 133.5625 C-34.05503262 132.57305594 -30.33502056 130.01028583 -26.6875 127.25 C-25 126 -25 126 -23 126 C-23 125.01 -23 124.02 -23 123 C-22.01 123 -21.02 123 -20 123 C-20.33 122.01 -20.66 121.02 -21 120 C-20.29296875 117.80859375 -20.29296875 117.80859375 -19.1875 115.4375 C-18.83042969 114.65246094 -18.47335938 113.86742187 -18.10546875 113.05859375 C-17 111 -17 111 -15 109 C-14.40929986 107.05396726 -14.40929986 107.05396726 -14 105 C-13.67 104.01 -13.34 103.02 -13 102 C-11.35 102 -9.7 102 -8 102 C-9 110 -10 118 -11 126 C-11.66 126 -12.32 126 -13 126 C-13.33 128.64 -13.66 131.28 -14 134 C-13.34 134 -12.68 134 -12 134 C-11.34 132.68 -10.68 131.36 -10 130 C-9.34 130 -8.68 130 -8 130 C-8.04125 128.9275 -8.0825 127.855 -8.125 126.75 C-8.0114175 123.34252515 -7.78726636 121.79260369 -6 119 C-5.34 119 -4.68 119 -4 119 C-3.85304687 118.1646875 -3.85304687 118.1646875 -3.703125 117.3125 C-3.55359375 116.549375 -3.4040625 115.78625 -3.25 115 C-3.11078125 114.2575 -2.9715625 113.515 -2.828125 112.75 C-2.08674508 110.28805913 -1.21211304 108.5333497 0.03125 106.3125 C2.46705956 101.59602799 2.66153963 97.23524548 2.75 92 C2.77964844 91.12988281 2.80929688 90.25976562 2.83984375 89.36328125 C2.90975408 87.24266784 2.95723116 85.12133437 3 83 C3.66 83 4.32 83 5 83 C5.0269501 80.06243881 5.04681474 77.12512445 5.0625 74.1875 C5.07087891 73.35412109 5.07925781 72.52074219 5.08789062 71.66210938 C5.09111328 70.85966797 5.09433594 70.05722656 5.09765625 69.23046875 C5.10289307 68.49207764 5.10812988 67.75368652 5.11352539 66.99291992 C5.07523213 64.78942591 5.07523213 64.78942591 4 62 C4.33 61.67 4.66 61.34 5 61 C5.10046963 58.83781771 5.13081703 56.67232686 5.1328125 54.5078125 C5.13376923 53.84723846 5.13472595 53.18666443 5.13571167 52.506073 C5.13639423 51.09877427 5.13453468 49.69147242 5.13037109 48.28417969 C5.12510832 46.16854376 5.13026866 44.05312852 5.13671875 41.9375 C5.14012223 34.24630977 4.89131693 26.64827075 4 19 C3.34 19 2.68 19 2 19 C1.67 15.37 1.34 11.74 1 8 C-2.11626617 9.76604905 -2.11626617 9.76604905 -3.5625 12.625 C-4.036875 13.40875 -4.51125 14.1925 -5 15 C-5.66 15 -6.32 15 -7 15 C-7.309375 15.804375 -7.61875 16.60875 -7.9375 17.4375 C-9 20 -9 20 -10 21 C-11.66617115 21.04063832 -13.33388095 21.042721 -15 21 C-15.33 21.99 -15.66 22.98 -16 24 C-16.66 24 -17.32 24 -18 24 C-17.67 25.32 -17.34 26.64 -17 28 C-17.94875 28.45375 -18.8975 28.9075 -19.875 29.375 C-23.00313679 30.80238254 -23.00313679 30.80238254 -25 33 C-27.3828125 33.4140625 -27.3828125 33.4140625 -30.125 33.625 C-31.03507812 33.69976562 -31.94515625 33.77453125 -32.8828125 33.8515625 C-33.58148438 33.90054688 -34.28015625 33.94953125 -35 34 C-35 34.66 -35 35.32 -35 36 C-35.88751953 36.05607422 -35.88751953 36.05607422 -36.79296875 36.11328125 C-37.97826172 36.21189453 -37.97826172 36.21189453 -39.1875 36.3125 C-39.96480469 36.37050781 -40.74210937 36.42851563 -41.54296875 36.48828125 C-44.07294373 36.83751968 -44.07294373 36.83751968 -46.02368164 38.48852539 C-50.31989349 40.67028632 -54.31836037 40.5671962 -59.078125 40.6953125 C-60.04530457 40.73308807 -61.01248413 40.77086365 -62.00897217 40.80978394 C-65.0889978 40.92799765 -68.16925796 41.02740471 -71.25 41.125 C-74.34480426 41.23292482 -77.43939489 41.34477745 -80.53387451 41.4616394 C-82.45785729 41.5332623 -84.3820656 41.59909537 -86.30645752 41.65872192 C-87.17115662 41.68900482 -88.03585571 41.71928772 -88.92675781 41.75048828 C-89.69111145 41.77474884 -90.45546509 41.7990094 -91.24298096 41.82400513 C-93.02642576 41.81538909 -93.02642576 41.81538909 -94 43 C-95.85287502 43.07226502 -97.70833878 43.0838122 -99.5625 43.0625 C-100.57441406 43.05347656 -101.58632812 43.04445312 -102.62890625 43.03515625 C-103.80259766 43.01775391 -103.80259766 43.01775391 -105 43 C-105 43.66 -105 44.32 -105 45 C-105.94875 45.45375 -106.8975 45.9075 -107.875 46.375 C-111.00313679 47.80238254 -111.00313679 47.80238254 -113 50 C-114.9630403 50.71978144 -116.92655597 51.43835433 -118.89453125 52.14453125 C-122.49853973 53.60886865 -126.21147805 55.4229561 -128 59 C-130.3140622 59.73075648 -132.64828869 60.40138258 -135 61 C-135.66 60.34 -136.32 59.68 -137 59 C-120.77725926 42.51006118 -101.47267926 37.68164539 -79 36.9375 C-53.71562207 36.03695263 -28.81616006 31.41005588 -10 13 C-7.61500567 10.15689457 -5.3877033 7.20537303 -3.25952148 4.16577148 C-2.23734827 2.72916322 -1.12481155 1.35774827 0 0 Z " fill="#3EA0C6" transform="translate(201,66)"/>
<path d="M0 0 C0.495 1.485 0.495 1.485 1 3 C0.24976563 2.88140625 -0.50046875 2.7628125 -1.2734375 2.640625 C-8.78553826 1.69451659 -14.42090462 2.03264381 -21 6 C-24.71518812 9.71518812 -26.13722086 12.9752519 -26.3125 18.1875 C-26.1889795 23.27654475 -25.31524992 27.04809787 -22 31 C-16.76546622 35.18318471 -11.31117514 38.69868752 -5 41 C-5 41.66 -5 42.32 -5 43 C-4.030625 43.144375 -3.06125 43.28875 -2.0625 43.4375 C1 44 1 44 2 45 C3.82899525 45.13358147 5.66272214 45.20347722 7.49609375 45.24609375 C8.61177734 45.27896484 9.72746094 45.31183594 10.87695312 45.34570312 C13.2466498 45.40679788 15.61644728 45.46410255 17.98632812 45.51757812 C19.66178711 45.56881836 19.66178711 45.56881836 21.37109375 45.62109375 C22.9168811 45.65867798 22.9168811 45.65867798 24.49389648 45.69702148 C27 46 27 46 29 48 C29 47.34 29 46.68 29 46 C34.94 45.505 34.94 45.505 41 45 C41 44.34 41 43.68 41 43 C42.98 43 44.96 43 47 43 C47 42.34 47 41.68 47 41 C48.24460783 40.32332002 49.49596896 39.65905281 50.75 39 C51.44609375 38.62875 52.1421875 38.2575 52.859375 37.875 C55 37 55 37 59 37 C59 36.34 59 35.68 59 35 C60.98 34.67 62.96 34.34 65 34 C65.33 33.01 65.66 32.02 66 31 C69.5625 29.8125 69.5625 29.8125 73 29 C72.61121002 31.81872737 72.29189635 32.77195598 70 34.5625 C69.34 35.036875 68.68 35.51125 68 36 C67.67 36.99 67.34 37.98 67 39 C64.93359375 39.73046875 64.93359375 39.73046875 62.4375 40.1875 C61.61121094 40.34605469 60.78492188 40.50460938 59.93359375 40.66796875 C59.29550781 40.77753906 58.65742188 40.88710937 58 41 C58.33 41.66 58.66 42.32 59 43 C58.01 43 57.02 43 56 43 C56 43.99 56 44.98 56 46 C54.02 46.66 52.04 47.32 50 48 C50 48.66 50 49.32 50 50 C48.35 50.33 46.7 50.66 45 51 C45 51.66 45 52.32 45 53 C43.95199219 53.29003906 43.95199219 53.29003906 42.8828125 53.5859375 C41.51769531 53.97652344 41.51769531 53.97652344 40.125 54.375 C39.22007812 54.63023437 38.31515625 54.88546875 37.3828125 55.1484375 C34.85430274 55.8604315 34.85430274 55.8604315 33 58 C17.14299277 61.49972948 -1.12621615 60.49494542 -16 54 C-17.40185547 53.42378906 -17.40185547 53.42378906 -18.83203125 52.8359375 C-35.42761066 45.3411597 -47.07200825 30.61314067 -54.19921875 14.24609375 C-55.58657065 10.43558423 -56.22736062 7.86232362 -55 4 C-55 4.99 -55 5.98 -55 7 C-54.34 7 -53.68 7 -53 7 C-52.7525 7.94875 -52.505 8.8975 -52.25 9.875 C-51.63125 11.421875 -51.63125 11.421875 -51 13 C-50.360625 13.2475 -49.72125 13.495 -49.0625 13.75 C-45.7843645 15.73674879 -45.6682394 18.51763093 -44.75 22.125 C-44.57726563 22.78371094 -44.40453125 23.44242188 -44.2265625 24.12109375 C-43.80327422 25.74369882 -43.39970259 27.37142454 -43 29 C-42.34 29 -41.68 29 -41 29 C-41 29.66 -41 30.32 -41 31 C-39.35 31 -37.7 31 -36 31 C-36 31.66 -36 32.32 -36 33 C-35.34 33 -34.68 33 -34 33 C-34 33.66 -34 34.32 -34 35 C-33.01 35 -32.02 35 -31 35 C-31 36.65 -31 38.3 -31 40 C-26.74268432 40.40749675 -26.74268432 40.40749675 -23.125 38.5 C-22.75375 38.005 -22.3825 37.51 -22 37 C-23.32 37 -24.64 37 -26 37 C-26 36.34 -26 35.68 -26 35 C-26.66 35 -27.32 35 -28 35 C-28.47985967 33.72942818 -28.9588593 32.45853152 -29.4375 31.1875 C-29.70433594 30.47980469 -29.97117187 29.77210938 -30.24609375 29.04296875 C-32.65985015 22.5020641 -33.02600196 14.75333986 -31 8 C-28.45285085 6.13209062 -27.19131 6 -24 6 C-23.7215625 5.1028125 -23.7215625 5.1028125 -23.4375 4.1875 C-18.98469111 -2.58851353 -6.95764621 -2.7013886 0 0 Z " fill="#0E91CE" transform="translate(103,185)"/>
<path d="M0 0 C19.48726613 17.00129516 19.48726613 17.00129516 20.84375 26.40625 C17.20737583 25.84129909 15.80350017 24.57202358 13.40625 21.84375 C1.93913564 10.06044682 -15.98739149 2.44752908 -32.43774414 2.16455078 C-44.54724501 2.1216585 -54.57080923 3.32192542 -64.15625 11.40625 C-67.85204037 15.13799164 -71.03017763 19.19447585 -74.15625 23.40625 C-73.40625 16.78125 -73.40625 16.78125 -71.15625 13.40625 C-70.46524447 11.41452818 -69.79722297 9.41463196 -69.15625 7.40625 C-68.15625 5.40625 -68.15625 5.40625 -66.265625 4.625 C-65.48703125 4.3878125 -64.7084375 4.150625 -63.90625 3.90625 C-63.09671875 3.6484375 -62.2871875 3.390625 -61.453125 3.125 C-60.31617187 2.76921875 -60.31617187 2.76921875 -59.15625 2.40625 C-56.27410113 1.52410113 -56.27410113 1.52410113 -54.15625 0.40625 C-53.66125 -1.07875 -53.66125 -1.07875 -53.15625 -2.59375 C-52.021875 -2.58214844 -50.8875 -2.57054687 -49.71875 -2.55859375 C-48.19791833 -2.5492059 -46.67708486 -2.54010678 -45.15625 -2.53125 C-44.41246094 -2.52287109 -43.66867188 -2.51449219 -42.90234375 -2.50585938 C-39.15211053 -2.48955401 -35.53128442 -2.61816567 -31.8125 -3.125 C-28.26658957 -3.5796039 -25.62157283 -3.37344764 -22.15625 -2.59375 C-21.82625 -3.25375 -21.49625 -3.91375 -21.15625 -4.59375 C-19.50625 -4.59375 -17.85625 -4.59375 -16.15625 -4.59375 C-17.14625 -5.25375 -18.13625 -5.91375 -19.15625 -6.59375 C-19.15625 -7.58375 -19.15625 -8.57375 -19.15625 -9.59375 C-19.86007813 -9.72652344 -20.56390625 -9.85929688 -21.2890625 -9.99609375 C-24.23884694 -10.61096707 -27.12169905 -11.37407202 -30.03125 -12.15625 C-34.5894897 -13.31550602 -38.47524387 -13.91290951 -43.15625 -13.59375 C-39.52625 -12.93375 -35.89625 -12.27375 -32.15625 -11.59375 C-32.15625 -11.26375 -32.15625 -10.93375 -32.15625 -10.59375 C-54.07523734 -10.18362342 -54.07523734 -10.18362342 -62.15625 -12.59375 C-62.15625 -11.93375 -62.15625 -11.27375 -62.15625 -10.59375 C-63.11337891 -10.28630859 -63.11337891 -10.28630859 -64.08984375 -9.97265625 C-64.91613281 -9.70324219 -65.74242187 -9.43382812 -66.59375 -9.15625 C-67.41746094 -8.88941406 -68.24117187 -8.62257813 -69.08984375 -8.34765625 C-71.11844588 -7.77219506 -71.11844588 -7.77219506 -72.15625 -6.59375 C-73.86070187 -6.40797064 -75.57051114 -6.27045464 -77.28125 -6.15625 C-81.84589198 -5.78726981 -85.82105036 -5.03881655 -90.15625 -3.59375 C-90.48625 -2.27375 -90.81625 -0.95375 -91.15625 0.40625 C-92.14625 0.07625 -93.13625 -0.25375 -94.15625 -0.59375 C-97.19650107 1.67026676 -99.76703105 4.00621942 -102.40625 6.71875 C-104.15625 8.40625 -104.15625 8.40625 -106.15625 8.40625 C-106.3109375 9.3653125 -106.3109375 9.3653125 -106.46875 10.34375 C-106.695625 11.024375 -106.9225 11.705 -107.15625 12.40625 C-108.14625 12.73625 -109.13625 13.06625 -110.15625 13.40625 C-110.88948796 15.42133358 -110.88948796 15.42133358 -111.15625 17.40625 C-111.81625 17.07625 -112.47625 16.74625 -113.15625 16.40625 C-113.81625 16.40625 -114.47625 16.40625 -115.15625 16.40625 C-109.59763489 2.87921555 -92.9628442 -5.79669017 -80.27197266 -11.24609375 C-54.46545601 -21.75429298 -21.68439485 -18.19195625 0 0 Z " fill="#1064A6" transform="translate(176.15625,19.59375)"/>
<path d="M0 0 C0.04898438 0.65226562 0.09796875 1.30453125 0.1484375 1.9765625 C0.62013215 7.58466323 0.62013215 7.58466323 2.0625 13 C3.41396337 17.32468278 3.15991085 21.5047283 3 26 C2.67 26 2.34 26 2 26 C1.67 22.37 1.34 18.74 1 15 C0.34 15 -0.32 15 -1 15 C-1.33 11.37 -1.66 7.74 -2 4 C-5.11626617 5.76604905 -5.11626617 5.76604905 -6.5625 8.625 C-7.036875 9.40875 -7.51125 10.1925 -8 11 C-8.66 11 -9.32 11 -10 11 C-10.309375 11.804375 -10.61875 12.60875 -10.9375 13.4375 C-12 16 -12 16 -13 17 C-14.66617115 17.04063832 -16.33388095 17.042721 -18 17 C-18.495 18.485 -18.495 18.485 -19 20 C-19.66 20 -20.32 20 -21 20 C-20.505 21.98 -20.505 21.98 -20 24 C-20.94875 24.45375 -21.8975 24.9075 -22.875 25.375 C-26.00313679 26.80238254 -26.00313679 26.80238254 -28 29 C-30.3828125 29.4140625 -30.3828125 29.4140625 -33.125 29.625 C-34.03507812 29.69976562 -34.94515625 29.77453125 -35.8828125 29.8515625 C-36.93082031 29.92503906 -36.93082031 29.92503906 -38 30 C-38 30.66 -38 31.32 -38 32 C-38.88751953 32.05607422 -38.88751953 32.05607422 -39.79296875 32.11328125 C-40.97826172 32.21189453 -40.97826172 32.21189453 -42.1875 32.3125 C-42.96480469 32.37050781 -43.74210937 32.42851563 -44.54296875 32.48828125 C-47.07294373 32.83751968 -47.07294373 32.83751968 -49.02368164 34.48852539 C-53.31989349 36.67028632 -57.31836037 36.5671962 -62.078125 36.6953125 C-63.04530457 36.73308807 -64.01248413 36.77086365 -65.00897217 36.80978394 C-68.0889978 36.92799765 -71.16925796 37.02740471 -74.25 37.125 C-77.34480426 37.23292482 -80.43939489 37.34477745 -83.53387451 37.4616394 C-85.45785729 37.5332623 -87.3820656 37.59909537 -89.30645752 37.65872192 C-90.17115662 37.68900482 -91.03585571 37.71928772 -91.92675781 37.75048828 C-92.69111145 37.77474884 -93.45546509 37.7990094 -94.24298096 37.82400513 C-96.02642576 37.81538909 -96.02642576 37.81538909 -97 39 C-98.85287502 39.07226502 -100.70833878 39.0838122 -102.5625 39.0625 C-103.57441406 39.05347656 -104.58632812 39.04445312 -105.62890625 39.03515625 C-106.80259766 39.01775391 -106.80259766 39.01775391 -108 39 C-108 39.66 -108 40.32 -108 41 C-109.423125 41.680625 -109.423125 41.680625 -110.875 42.375 C-114.00313679 43.80238254 -114.00313679 43.80238254 -116 46 C-117.9630403 46.71978144 -119.92655597 47.43835433 -121.89453125 48.14453125 C-125.49853973 49.60886865 -129.21147805 51.4229561 -131 55 C-133.3140622 55.73075648 -135.64828869 56.40138258 -138 57 C-138.66 56.34 -139.32 55.68 -140 55 C-123.77725926 38.51006118 -104.47267926 33.68164539 -82 32.9375 C-55.7189609 32.0014548 -33.37098712 26.572417 -13 9 C-11.85607236 8.06017563 -10.71064338 7.12216949 -9.5625 6.1875 C-6.98238072 4.06348101 -6.98238072 4.06348101 -4.8125 1.6875 C-3 0 -3 0 0 0 Z " fill="#1390C5" transform="translate(204,70)"/>
<path d="M0 0 C0.495 1.485 0.495 1.485 1 3 C0.195625 3.598125 -0.60875 4.19625 -1.4375 4.8125 C-4.22327984 6.80947276 -4.22327984 6.80947276 -5 10 C-7.06640625 10.73046875 -7.06640625 10.73046875 -9.5625 11.1875 C-10.38878906 11.34605469 -11.21507812 11.50460938 -12.06640625 11.66796875 C-12.70449219 11.77753906 -13.34257812 11.88710937 -14 12 C-13.505 12.99 -13.505 12.99 -13 14 C-13.99 14 -14.98 14 -16 14 C-16 14.99 -16 15.98 -16 17 C-17.98 17.66 -19.96 18.32 -22 19 C-22 19.66 -22 20.32 -22 21 C-23.65 21.33 -25.3 21.66 -27 22 C-27 22.66 -27 23.32 -27 24 C-28.06541016 24.30744141 -28.06541016 24.30744141 -29.15234375 24.62109375 C-30.53099609 25.02521484 -30.53099609 25.02521484 -31.9375 25.4375 C-32.85402344 25.70433594 -33.77054688 25.97117188 -34.71484375 26.24609375 C-36.9402493 26.79026051 -36.9402493 26.79026051 -38 28 C-42.65242549 28.53076967 -47.3259748 28.73735967 -52 29 C-52.93972656 29.09023437 -53.87945312 29.18046875 -54.84765625 29.2734375 C-61.44306996 29.69124651 -66.67194841 27.90332061 -72.61108398 25.22241211 C-76.84078568 23.32511974 -80.43870633 22.46197718 -85 22 C-85.33 21.01 -85.66 20.02 -86 19 C-88.03277473 18.04882642 -88.03277473 18.04882642 -90.4375 17.4375 C-94.80269058 16.19730942 -94.80269058 16.19730942 -97 14 C-96.34 13.34 -95.68 12.68 -95 12 C-92.27130593 12.03287583 -89.7033382 12.56397771 -87 13 C-87 13.66 -87 14.32 -87 15 C-76.50689155 18.75472251 -66.30965989 19.42032713 -55.25 19.4375 C-54.5778949 19.44322021 -53.90578979 19.44894043 -53.21331787 19.45483398 C-51.27244195 19.4664266 -49.33146222 19.45046412 -47.390625 19.43359375 C-46.25657227 19.42384521 -45.12251953 19.41409668 -43.95410156 19.40405273 C-40.68718907 18.9572147 -39.49311031 18.0520579 -37 16 C-33.75 15.8125 -33.75 15.8125 -31 16 C-31 15.34 -31 14.68 -31 14 C-29.02 14 -27.04 14 -25 14 C-25 13.34 -25 12.68 -25 12 C-23.75539217 11.32332002 -22.50403104 10.65905281 -21.25 10 C-20.20585937 9.443125 -20.20585937 9.443125 -19.140625 8.875 C-17 8 -17 8 -13 8 C-13 7.34 -13 6.68 -13 6 C-10.03 5.505 -10.03 5.505 -7 5 C-6.67 4.01 -6.34 3.02 -6 2 C-2.9375 0.8125 -2.9375 0.8125 0 0 Z " fill="#0995DB" transform="translate(175,214)"/>
<path d="M0 0 C-0.99 0 -1.98 0 -3 0 C-3 0.66 -3 1.32 -3 2 C-3.60062256 2.08564209 -4.20124512 2.17128418 -4.82006836 2.25952148 C-7.52651658 2.64788015 -10.23199836 3.04260329 -12.9375 3.4375 C-13.88302734 3.57220703 -14.82855469 3.70691406 -15.80273438 3.84570312 C-16.70185547 3.97783203 -17.60097656 4.10996094 -18.52734375 4.24609375 C-19.77632446 4.42676392 -19.77632446 4.42676392 -21.05053711 4.61108398 C-22.99687359 4.81183994 -22.99687359 4.81183994 -24 6 C-25.69428307 6.14530987 -27.39410742 6.22716523 -29.09375 6.28125 C-30.12371094 6.31863281 -31.15367188 6.35601562 -32.21484375 6.39453125 C-34.40494792 6.46484375 -36.59505208 6.53515625 -38.78515625 6.60546875 C-39.81511719 6.64285156 -40.84507813 6.68023437 -41.90625 6.71875 C-42.85822266 6.74904297 -43.81019531 6.77933594 -44.79101562 6.81054688 C-46.97355315 6.75885402 -46.97355315 6.75885402 -48 8 C-49.85287502 8.07226502 -51.70833878 8.0838122 -53.5625 8.0625 C-54.57441406 8.05347656 -55.58632812 8.04445313 -56.62890625 8.03515625 C-57.41136719 8.02355469 -58.19382813 8.01195313 -59 8 C-59 8.66 -59 9.32 -59 10 C-59.94875 10.45375 -60.8975 10.9075 -61.875 11.375 C-65.00313679 12.80238254 -65.00313679 12.80238254 -67 15 C-68.9630403 15.71978144 -70.92655597 16.43835433 -72.89453125 17.14453125 C-76.49853973 18.60886865 -80.21147805 20.4229561 -82 24 C-84.3140622 24.73075648 -86.64828869 25.40138258 -89 26 C-89.66 25.34 -90.32 24.68 -91 24 C-74.70093218 7.43247694 -55.31004252 2.69011823 -32.75 1.875 C-29.84847452 1.75700463 -26.94759276 1.62856441 -24.046875 1.4921875 C-23.35493042 1.46106873 -22.66298584 1.42994995 -21.95007324 1.39788818 C-16.67467082 1.12481631 -11.59509214 0.3771075 -6.42675781 -0.69091797 C-3.94909006 -1.0064841 -2.35166516 -0.77954615 0 0 Z " fill="#1C8FC5" transform="translate(155,101)"/>
<path d="M0 0 C1.75574183 3.51148365 0.90388075 6.86692301 0.2265625 10.6328125 C-4.12291015 22.57308455 -18.40400477 30.30132735 -29.13671875 35.52734375 C-35.30236195 38.25096334 -41.33494644 40.01203852 -48 41 C-47 39 -47 39 -44.75 37.875 C-41.98386705 36.99486679 -39.87951649 36.8354562 -37 37 C-37 36.34 -37 35.68 -37 35 C-36.360625 34.71125 -35.72125 34.4225 -35.0625 34.125 C-32.84793921 33.17176549 -32.84793921 33.17176549 -32 31 C-28.9375 30.375 -28.9375 30.375 -26 30 C-26 29.01 -26 28.02 -26 27 C-25.34 26.67 -24.68 26.34 -24 26 C-24.33 25.34 -24.66 24.68 -25 24 C-21.7 23.67 -18.4 23.34 -15 23 C-14.67 21.68 -14.34 20.36 -14 19 C-12.69084721 17.96854629 -11.35917857 16.96457834 -10 16 C-10 15.34 -10 14.68 -10 14 C-13.86137461 15.11550822 -16.29521127 16.02473239 -19 19 C-19.66 19 -20.32 19 -21 19 C-21 18.34 -21 17.68 -21 17 C-20.01 17 -19.02 17 -18 17 C-17.896875 16.236875 -17.79375 15.47375 -17.6875 14.6875 C-16.95635961 11.82940576 -16.23048087 10.84257115 -14 9 C-13.01 9.33 -12.02 9.66 -11 10 C-9.948125 8.9171875 -9.948125 8.9171875 -8.875 7.8125 C-6.07229255 5.00176187 -3.07737208 2.50483774 0 0 Z " fill="#0C8DD0" transform="translate(185,201)"/>
<path d="M0 0 C1.32 0 2.64 0 4 0 C3.48145208 4.14838332 1.94696143 7.31033771 0.03125 10.95703125 C-1.14945705 13.21232787 -1.14945705 13.21232787 -2.375 16.5625 C-8.89074821 30.34581351 -23.02261122 37.14907802 -36.5625 42.375 C-45.27657313 43.95937693 -53.80943378 43.55685943 -62 40 C-62.66 39.34 -63.32 38.68 -64 38 C-61.36 38.33 -58.72 38.66 -56 39 C-56 38.34 -56 37.68 -56 37 C-54.824375 37.495 -54.824375 37.495 -53.625 38 C-46.91392525 39.85133096 -40.46796349 39.72335305 -34 37 C-34 36.34 -34 35.68 -34 35 C-28.58892617 32.1057047 -28.58892617 32.1057047 -25.5625 31.5625 C-21.05503262 30.57305594 -17.33502056 28.01028583 -13.6875 25.25 C-12 24 -12 24 -10 24 C-10 23.01 -10 22.02 -10 21 C-9.01 21 -8.02 21 -7 21 C-7.495 19.515 -7.495 19.515 -8 18 C-7.29296875 15.80859375 -7.29296875 15.80859375 -6.1875 13.4375 C-5.65189453 12.25994141 -5.65189453 12.25994141 -5.10546875 11.05859375 C-4 9 -4 9 -2 7 C-1.40929986 5.05396726 -1.40929986 5.05396726 -1 3 C-0.67 2.01 -0.34 1.02 0 0 Z " fill="#1395C7" transform="translate(188,168)"/>
<path d="M0 0 C0.495 1.485 0.495 1.485 1 3 C0.24976563 2.88140625 -0.50046875 2.7628125 -1.2734375 2.640625 C-8.78553826 1.69451659 -14.42090462 2.03264381 -21 6 C-24.71518812 9.71518812 -26.13722086 12.9752519 -26.3125 18.1875 C-26.1889795 23.27654475 -25.31524992 27.04809787 -22 31 C-16.76546622 35.18318471 -11.31117514 38.69868752 -5 41 C-6.625 42.125 -6.625 42.125 -9 43 C-12.25 42.125 -12.25 42.125 -15 41 C-15 40.34 -15 39.68 -15 39 C-18.63 38.34 -22.26 37.68 -26 37 C-26 36.34 -26 35.68 -26 35 C-26.66 35 -27.32 35 -28 35 C-28.47985967 33.72942818 -28.9588593 32.45853152 -29.4375 31.1875 C-29.83775391 30.12595703 -29.83775391 30.12595703 -30.24609375 29.04296875 C-32.65985015 22.5020641 -33.02600196 14.75333986 -31 8 C-28.45285085 6.13209062 -27.19131 6 -24 6 C-23.814375 5.401875 -23.62875 4.80375 -23.4375 4.1875 C-18.98469111 -2.58851353 -6.95764621 -2.7013886 0 0 Z " fill="#2297C3" transform="translate(103,185)"/>
<path d="M0 0 C-3.33922742 24.71028292 -3.33922742 24.71028292 -11 31 C-17.66658219 35.20033213 -24.26657984 37.12399784 -32.171875 35.57421875 C-38.20164327 33.87964594 -42.94496263 30.81018463 -47 26 C-47.71875 23.77734375 -47.71875 23.77734375 -48 22 C-47.34 22 -46.68 22 -46 22 C-46.33 20.02 -46.66 18.04 -47 16 C-45.10786631 18.38573379 -43.97608217 20.07175348 -43 23 C-39.99152582 24.22520264 -39.99152582 24.22520264 -37 25 C-36.67 26.98 -36.34 28.96 -36 31 C-30.06 31 -24.12 31 -18 31 C-17.67 30.01 -17.34 29.02 -17 28 C-14.93359375 27.26953125 -14.93359375 27.26953125 -12.4375 26.8125 C-11.19806641 26.57466797 -11.19806641 26.57466797 -9.93359375 26.33203125 C-9.29550781 26.22246094 -8.65742187 26.11289063 -8 26 C-8.020625 24.741875 -8.04125 23.48375 -8.0625 22.1875 C-8.10886083 19.35948913 -7.91692961 17.75078884 -7 15 C-6.34 15 -5.68 15 -5 15 C-5 10.38 -5 5.76 -5 1 C-3 0 -3 0 0 0 Z " fill="#2E76AE" transform="translate(100,48)"/>
<path d="M0 0 C3.96 0 7.92 0 12 0 C12 0.66 12 1.32 12 2 C6.63904667 3.12862175 1.44693314 3.09688221 -4 3 C-4 3.66 -4 4.32 -4 5 C-4.95712891 5.30744141 -4.95712891 5.30744141 -5.93359375 5.62109375 C-6.75988281 5.89050781 -7.58617187 6.15992188 -8.4375 6.4375 C-9.26121094 6.70433594 -10.08492187 6.97117187 -10.93359375 7.24609375 C-12.96219588 7.82155494 -12.96219588 7.82155494 -14 9 C-15.70445187 9.18577936 -17.41426114 9.32329536 -19.125 9.4375 C-23.68964198 9.80648019 -27.66480036 10.55493345 -32 12 C-32.33 13.32 -32.66 14.64 -33 16 C-33.99 15.67 -34.98 15.34 -36 15 C-39.04025107 17.26401676 -41.61078105 19.59996942 -44.25 22.3125 C-46 24 -46 24 -48 24 C-48.1546875 24.9590625 -48.1546875 24.9590625 -48.3125 25.9375 C-48.539375 26.618125 -48.76625 27.29875 -49 28 C-49.99 28.33 -50.98 28.66 -52 29 C-52.73323796 31.01508358 -52.73323796 31.01508358 -53 33 C-53.66 32.67 -54.32 32.34 -55 32 C-55.66 32 -56.32 32 -57 32 C-51.21448014 17.92078694 -33.55763829 9.08281911 -20.375 3.4375 C-13.46136038 0.78739316 -7.33293268 0.33224559 0 1 C0 0.67 0 0.34 0 0 Z " fill="#1561A0" transform="translate(118,4)"/>
<path d="M0 0 C0 3.63306931 -1.07932067 4.97123644 -3 8 C-3.68096422 9.32608822 -4.35330586 10.65686601 -5 12 C-5.99 11.67 -6.98 11.34 -8 11 C-10.50037734 13.17424117 -11.43628586 14.73045798 -12 18 C-12.99 18 -13.98 18 -15 18 C-15 18.66 -15 19.32 -15 20 C-15.66 20 -16.32 20 -17 20 C-17 20.66 -17 21.32 -17 22 C-18.6232687 22.6708712 -20.24867578 23.33657029 -21.875 24 C-22.77992188 24.37125 -23.68484375 24.7425 -24.6171875 25.125 C-27 26 -27 26 -29 26 C-29 26.66 -29 27.32 -29 28 C-30.98 28 -32.96 28 -35 28 C-35 28.66 -35 29.32 -35 30 C-38.96 30.33 -42.92 30.66 -47 31 C-47 31.66 -47 32.32 -47 33 C-53.6 33 -60.2 33 -67 33 C-67 32.67 -67 32.34 -67 32 C-68.010625 31.896875 -69.02125 31.79375 -70.0625 31.6875 C-74.21218208 30.96295233 -77.21356263 29.77730734 -81 28 C-77.3202114 26.71386029 -74.53537405 27.29574436 -70.75 28 C-51.40883079 30.92622871 -32.19177278 26.62694401 -16.296875 15.02734375 C-14.78050905 13.83626276 -13.28003904 12.62433474 -11.8046875 11.3828125 C-10 10 -10 10 -7 9 C-6.71125 8.4225 -6.4225 7.845 -6.125 7.25 C-4.61984999 4.23969997 -2.42622037 2.29852456 0 0 Z " fill="#55A9C8" transform="translate(179,200)"/>
<path d="M0 0 C0.33 0 0.66 0 1 0 C1.02712351 2.39591038 1.0468982 4.79150957 1.0625 7.1875 C1.07087891 7.86103516 1.07925781 8.53457031 1.08789062 9.22851562 C1.10606538 12.95434131 0.89299392 16.3788042 0 20 C-0.66 20 -1.32 20 -2 20 C-1.95359375 21.27875 -1.9071875 22.5575 -1.859375 23.875 C-1.82182973 25.58330979 -1.78543255 27.29164508 -1.75 29 C-1.69972656 30.25876953 -1.69972656 30.25876953 -1.6484375 31.54296875 C-1.56467156 36.94587158 -2.31771549 40.60310118 -5.07275391 45.27807617 C-6.39829658 47.73964871 -6.61712989 50.25609755 -7 53 C-7.66 53.99 -8.32 54.98 -9 56 C-9.66 56 -10.32 56 -11 56 C-11.09796875 56.74765625 -11.1959375 57.4953125 -11.296875 58.265625 C-12.52641316 66.36361768 -12.52641316 66.36361768 -15 69.6875 C-17 71 -17 71 -19 71 C-20.2077558 67.37673261 -19.54311128 66.35853631 -18 63 C-17.34 63 -16.68 63 -16 63 C-16.495 61.515 -16.495 61.515 -17 60 C-16.58802876 57.38412666 -16.11683379 54.83531843 -15.5625 52.25 C-14.45084372 47.04608937 -13.93983265 42.35489391 -14 37 C-13 34.6875 -13 34.6875 -12 33 C-12 32.34 -12 31.68 -12 31 C-10.02 31 -8.04 31 -6 31 C-6.63218391 35.67816092 -6.63218391 35.67816092 -8.5 37.3125 C-10.98547781 40.10866253 -10.70023057 43.34281293 -11 47 C-11.66 47 -12.32 47 -13 47 C-13.33 49.97 -13.66 52.94 -14 56 C-12.02 55.505 -12.02 55.505 -10 55 C-9.98582031 54.443125 -9.97164062 53.88625 -9.95703125 53.3125 C-9.90933594 52.549375 -9.86164063 51.78625 -9.8125 51 C-9.77769531 50.2575 -9.74289063 49.515 -9.70703125 48.75 C-8.98897338 45.95711193 -8.21247627 44.87989879 -6.5234375 42.625 C-2.63683944 36.68824409 -3.03628993 29.87842072 -2.8125 23 C-2.16340158 6.97986354 -2.16340158 6.97986354 0 0 Z " fill="#1092CB" transform="translate(206,129)"/>
<path d="M0 0 C7.83098592 1.95774648 7.83098592 1.95774648 11 5 C11 5.66 11 6.32 11 7 C12.2684375 6.87625 12.2684375 6.87625 13.5625 6.75 C17.21331133 7.01551355 19.05214591 8.08693546 22.10546875 9.99609375 C24.80244673 11.42521404 27.4888907 11.82213242 30.47265625 12.36328125 C33.39521937 13.0995684 35.83993958 14.33422434 38.5625 15.625 C48.47866534 19.66975165 59.48798775 18.41770436 70 18 C70 18.33 70 18.66 70 19 C53.76809907 21.98112349 36.21575855 21.64427575 21 15 C20.06542969 14.61585938 19.13085938 14.23171875 18.16796875 13.8359375 C11.8871704 10.99944792 3.16688028 6.33376056 0 0 Z " fill="#4EA9CD" transform="translate(66,224)"/>
<path d="M0 0 C0.33 0.66 0.66 1.32 1 2 C-0.20850753 5.07620099 -1.52221785 8.0444357 -3 11 C-3.66 11 -4.32 11 -5 11 C-5.66 13.31 -6.32 15.62 -7 18 C-7.99 17.67 -8.98 17.34 -10 17 C-14.40566251 31.52844056 -14.80628572 45.89195643 -15 61 C-17 60 -17 60 -18 57 C-19.10825081 36.60392257 -14.96840462 19.78979984 -3 3 C-2.02922804 1.97160231 -1.04013519 0.95818515 0 0 Z " fill="#62B0CE" transform="translate(63,126)"/>
<path d="M0 0 C0.33 0 0.66 0 1 0 C0.19772105 18.81133021 -1.02179202 39.81638884 -12 56 C-13.485 56.495 -13.485 56.495 -15 57 C-15 55.35 -15 53.7 -15 52 C-14.34 52 -13.68 52 -13 52 C-13.04125 50.9275 -13.0825 49.855 -13.125 48.75 C-13.0114175 45.34252515 -12.78726636 43.79260369 -11 41 C-10.34 41 -9.68 41 -9 41 C-8.90203125 40.443125 -8.8040625 39.88625 -8.703125 39.3125 C-8.55359375 38.549375 -8.4040625 37.78625 -8.25 37 C-8.11078125 36.2575 -7.9715625 35.515 -7.828125 34.75 C-7.08674508 32.28805913 -6.21211304 30.5333497 -4.96875 28.3125 C-2.53294044 23.59602799 -2.33846037 19.23524548 -2.25 14 C-2.22035156 13.12988281 -2.19070312 12.25976562 -2.16015625 11.36328125 C-2.09024592 9.24266784 -2.04276884 7.12133437 -2 5 C-1.34 5 -0.68 5 0 5 C0 3.35 0 1.7 0 0 Z " fill="#228BB4" transform="translate(206,144)"/>
<path d="M0 0 C-0.66 0.33 -1.32 0.66 -2 1 C-4.125 0.0625 -4.125 0.0625 -6 -1 C-6 -0.34 -6 0.32 -6 1 C-6.99 1 -7.98 1 -9 1 C-9.495 0.01 -9.495 0.01 -10 -1 C-10.99 -1.33 -11.98 -1.66 -13 -2 C-13 -2.99 -13 -3.98 -13 -5 C-13.70382813 -5.13277344 -14.40765625 -5.26554688 -15.1328125 -5.40234375 C-18.08259694 -6.01721707 -20.96544905 -6.78032202 -23.875 -7.5625 C-28.4332397 -8.72175602 -32.31899387 -9.31915951 -37 -9 C-33.37 -8.34 -29.74 -7.68 -26 -7 C-26 -6.67 -26 -6.34 -26 -6 C-34.71782637 -5.83688059 -43.31238511 -6.34344611 -52 -7 C-52 -7.33 -52 -7.66 -52 -8 C-46.06 -8.495 -46.06 -8.495 -40 -9 C-40 -9.66 -40 -10.32 -40 -11 C-41.41702513 -10.85769192 -42.8336096 -10.71099254 -44.25 -10.5625 C-45.03890625 -10.48128906 -45.8278125 -10.40007813 -46.640625 -10.31640625 C-48.96580654 -10.059193 -48.96580654 -10.059193 -51.03125 -9.4375 C-54.430591 -8.68209089 -57.58324214 -9.48748632 -61 -10 C-61 -10.33 -61 -10.66 -61 -11 C-40.44252227 -15.13148661 -17.71928739 -11.12606417 0 0 Z " fill="#4D8DBF" transform="translate(170,15)"/>
<path d="M0 0 C1.63001953 0.16628906 1.63001953 0.16628906 3.29296875 0.3359375 C4.12441406 0.43132813 4.95585937 0.52671875 5.8125 0.625 C5.8125 0.955 5.8125 1.285 5.8125 1.625 C4.77802734 1.84542969 4.77802734 1.84542969 3.72265625 2.0703125 C-9.26881392 5.17115723 -16.41765481 12.1566457 -24.1875 22.625 C-23.4375 16 -23.4375 16 -21.1875 12.625 C-20.49649447 10.63327818 -19.82847297 8.63338196 -19.1875 6.625 C-18.1875 4.625 -18.1875 4.625 -16.2265625 3.84375 C-15.42992188 3.6065625 -14.63328125 3.369375 -13.8125 3.125 C-2.49078574 -0.26782642 -2.49078574 -0.26782642 0 0 Z " fill="#20689E" transform="translate(126.1875,20.375)"/>
<path d="M0 0 C0.598125 0.350625 1.19625 0.70125 1.8125 1.0625 C-8.86907903 9.77522866 -21.32505852 16.42966434 -35.1875 18.0625 C-34.1875 16.0625 -34.1875 16.0625 -31.9375 14.9375 C-29.17136705 14.05736679 -27.06701649 13.8979562 -24.1875 14.0625 C-24.1875 13.4025 -24.1875 12.7425 -24.1875 12.0625 C-23.548125 11.77375 -22.90875 11.485 -22.25 11.1875 C-20.03543921 10.23426549 -20.03543921 10.23426549 -19.1875 8.0625 C-16.125 7.4375 -16.125 7.4375 -13.1875 7.0625 C-13.1875 6.0725 -13.1875 5.0825 -13.1875 4.0625 C-12.5275 3.7325 -11.8675 3.4025 -11.1875 3.0625 C-11.5175 2.4025 -11.8475 1.7425 -12.1875 1.0625 C-11.094375 0.918125 -10.00125 0.77375 -8.875 0.625 C-1.25416667 -0.5375 -1.25416667 -0.5375 0 0 Z " fill="#1290C6" transform="translate(172.1875,223.9375)"/>
<path d="M0 0 C0.33 0.99 0.66 1.98 1 3 C1.66 3 2.32 3 3 3 C3.2475 3.94875 3.495 4.8975 3.75 5.875 C4.36875 7.421875 4.36875 7.421875 5 9 C5.639375 9.2475 6.27875 9.495 6.9375 9.75 C10.2156355 11.73674879 10.3317606 14.51763093 11.25 18.125 C11.42273437 18.78371094 11.59546875 19.44242188 11.7734375 20.12109375 C12.19672578 21.74369882 12.60029741 23.37142454 13 25 C13.66 25 14.32 25 15 25 C17.6875 27.1875 17.6875 27.1875 20 30 C19.8125 32.8125 19.8125 32.8125 19 35 C9.1493403 25.74634998 0.54663744 13.93925462 0 0 Z " fill="#3198C1" transform="translate(47,189)"/>
<path d="M0 0 C-3.25938567 24.11945392 -3.25938567 24.11945392 -11 31 C-13.625 33 -13.625 33 -16 34 C-18.3125 33.6875 -18.3125 33.6875 -20 33 C-20 32.67 -20 32.34 -20 32 C-18.35 32 -16.7 32 -15 32 C-15 30.35 -15 28.7 -15 27 C-11.535 26.505 -11.535 26.505 -8 26 C-8.020625 24.741875 -8.04125 23.48375 -8.0625 22.1875 C-8.10886083 19.35948913 -7.91692961 17.75078884 -7 15 C-6.34 15 -5.68 15 -5 15 C-5 10.38 -5 5.76 -5 1 C-3 0 -3 0 0 0 Z " fill="#4983A9" transform="translate(100,48)"/>
<path d="M0 0 C-0.99 0 -1.98 0 -3 0 C-3 0.66 -3 1.32 -3 2 C-20.64121953 5.60112379 -38.09070288 5.3143962 -56 5 C-56 4.67 -56 4.34 -56 4 C-51.45614736 3.15247614 -47.0132685 2.76586956 -42.3984375 2.53515625 C-40.92316715 2.45656639 -39.44790705 2.37778406 -37.97265625 2.29882812 C-35.68257428 2.18005604 -33.39242903 2.06335928 -31.10205078 1.95043945 C-22.74318582 1.53312986 -14.62686377 0.99681169 -6.40478516 -0.69750977 C-3.94022181 -1.00751931 -2.33992057 -0.77350213 0 0 Z " fill="#5CACCA" transform="translate(155,101)"/>
<path d="M0 0 C0.99773437 0.15597656 1.99546875 0.31195313 3.0234375 0.47265625 C12.77130509 1.84473248 22.22355216 2.08780416 32.0625 1.6875 C33.22249512 1.64052979 34.38249023 1.59355957 35.57763672 1.54516602 C40.65089146 1.76782489 40.65089146 1.76782489 45 0 C46.66617115 -0.04063832 48.33388095 -0.042721 50 0 C48.68 0.33 47.36 0.66 46 1 C46 1.66 46 2.32 46 3 C40.06 3.495 40.06 3.495 34 4 C34 4.66 34 5.32 34 6 C27.4 6 20.8 6 14 6 C14 5.67 14 5.34 14 5 C12.989375 4.896875 11.97875 4.79375 10.9375 4.6875 C6.78781792 3.96295233 3.78643737 2.77730734 0 1 C0 0.67 0 0.34 0 0 Z " fill="#248EB7" transform="translate(98,227)"/>
<path d="M0 0 C4.17364605 3.06267552 7.15655462 6.41554068 10.25 10.5 C10.69601563 11.06847656 11.14203125 11.63695312 11.6015625 12.22265625 C13.76473664 15.04789278 15.54273629 17.41223858 16 21 C12.27351319 20.43937809 10.75073652 18.99874345 8.25 16.25 C4.53296917 12.36528357 0.68973039 9.59431894 -4 7 C-2.68 6.34 -1.36 5.68 0 5 C0.33 5.33 0.66 5.66 1 6 C0.67 4.02 0.34 2.04 0 0 Z " fill="#6E9CB6" transform="translate(181,25)"/>
<path d="M0 0 C0 0.66 0 1.32 0 2 C-0.99 2 -1.98 2 -3 2 C-3.66 3.98 -4.32 5.96 -5 8 C-5.99 7.67 -6.98 7.34 -8 7 C-11.04025107 9.26401676 -13.61078105 11.59996942 -16.25 14.3125 C-18 16 -18 16 -20 16 C-20.1546875 16.9590625 -20.1546875 16.9590625 -20.3125 17.9375 C-20.539375 18.618125 -20.76625 19.29875 -21 20 C-21.99 20.33 -22.98 20.66 -24 21 C-24.73323796 23.01508358 -24.73323796 23.01508358 -25 25 C-25.66 24.67 -26.32 24.34 -27 24 C-27.66 24 -28.32 24 -29 24 C-25.52270562 15.45927697 -9.8032089 0 0 0 Z " fill="#37779F" transform="translate(90,12)"/>
<path d="M0 0 C7.20997187 1.75242372 11.76234264 4.79088573 17 10 C14 10 14 10 11 8 C11 8.99 11 9.98 11 11 C8.03 10.01 5.06 9.02 2 8 C2 7.34 2 6.68 2 6 C0.68 5.67 -0.64 5.34 -2 5 C-2 4.67 -2 4.34 -2 4 C-4.64 3.67 -7.28 3.34 -10 3 C-9.67 2.34 -9.34 1.68 -9 1 C-6.03 1.33 -3.06 1.66 0 2 C0 1.34 0 0.68 0 0 Z " fill="#0A65AF" transform="translate(164,14)"/>
<path d="M0 0 C0.07347656 0.97839844 0.07347656 0.97839844 0.1484375 1.9765625 C0.62013215 7.58466323 0.62013215 7.58466323 2.0625 13 C3.41396337 17.32468278 3.15991085 21.5047283 3 26 C2.67 26 2.34 26 2 26 C1.67 22.37 1.34 18.74 1 15 C0.34 15 -0.32 15 -1 15 C-1.33 11.37 -1.66 7.74 -2 4 C-5.11626617 5.76604905 -5.11626617 5.76604905 -6.5625 8.625 C-7.036875 9.40875 -7.51125 10.1925 -8 11 C-8.66 11 -9.32 11 -10 11 C-10.66 12.65 -11.32 14.3 -12 16 C-13.32 16 -14.64 16 -16 16 C-5.65333333 0 -5.65333333 0 0 0 Z " fill="#1E86B5" transform="translate(204,70)"/>
<path d="M0 0 C-5.36077569 6.12915353 -15.8474961 9.58897405 -23.7421875 10.21875 C-30.54152496 10.42636336 -36.71546456 9.72914089 -43 7 C-43.66 6.34 -44.32 5.68 -45 5 C-42.36 5.33 -39.72 5.66 -37 6 C-37 5.34 -37 4.68 -37 4 C-35.02 4.66 -33.04 5.32 -31 6 C-31 6.33 -31 6.66 -31 7 C-19.99242602 7.79609534 -19.99242602 7.79609534 -10.3125 3.5 C-9.879375 3.005 -9.44625 2.51 -9 2 C-5.91228852 0.04444939 -3.62685461 -0.20149192 0 0 Z " fill="#6BBCD2" transform="translate(169,201)"/>
<path d="M0 0 C6.6 0 13.2 0 20 0 C20 0.66 20 1.32 20 2 C20.84820312 1.9690625 21.69640625 1.938125 22.5703125 1.90625 C26.20556149 2.00561899 29.34704524 2.63601108 32.875 3.5 C34.02742188 3.7784375 35.17984375 4.056875 36.3671875 4.34375 C37.67042969 4.66859375 37.67042969 4.66859375 39 5 C39 5.66 39 6.32 39 7 C40.96147874 8.38938077 42.96166576 9.7260411 45 11 C44.34 11.33 43.68 11.66 43 12 C41.1551465 11.07757325 39.31337669 10.14842776 37.48828125 9.1875 C28.17512214 4.74291543 18.88132914 2.9282842 8.6875 2.4375 C7.85154297 2.39431641 7.01558594 2.35113281 6.15429688 2.30664062 C4.10303065 2.20114693 2.0515352 2.10012685 0 2 C0 1.34 0 0.68 0 0 Z " fill="#6DA1C2" transform="translate(132,19)"/>
<path d="M0 0 C7.86842447 -0.45394757 16.33930189 0.55953459 23 5 C23 4.01 23 3.02 23 2 C25.89104992 3.29598789 28.03018393 4.49296136 30 7 C31.1875 10.1875 31.1875 10.1875 32 13 C26.55477572 11.83316623 22.57550094 9.11523468 18 6 C14.52934193 3.68622795 11.32959845 3.11015527 7.3125 2.375 C6.61060547 2.2409375 5.90871094 2.106875 5.18554688 1.96875 C3.45818294 1.6397283 1.72923409 1.31904688 0 1 C0 0.67 0 0.34 0 0 Z " fill="#135A8F" transform="translate(152,20)"/>
<path d="M0 0 C0.66 0.33 1.32 0.66 2 1 C1.55120234 3.62696231 1.09145886 6.25116893 0.625 8.875 C0.49867187 9.62136719 0.37234375 10.36773437 0.2421875 11.13671875 C-0.7734375 16.7734375 -0.7734375 16.7734375 -3 19 C-3.37322427 22.10756015 -3.37322427 22.10756015 -3.4140625 25.7578125 C-3.43342865 26.42086395 -3.4527948 27.08391541 -3.4727478 27.76705933 C-3.53255954 29.88624177 -3.57893388 32.0054785 -3.625 34.125 C-3.66317845 35.56122169 -3.70223011 36.99742045 -3.7421875 38.43359375 C-3.83826125 41.95551936 -3.92228642 45.47761608 -4 49 C-4.495 47.515 -4.495 47.515 -5 46 C-5.66 46 -6.32 46 -7 46 C-6.67 45.01 -6.34 44.02 -6 43 C-5.88494813 41.14937468 -5.82171601 39.29531692 -5.7890625 37.44140625 C-5.76070312 36.33216797 -5.73234375 35.22292969 -5.703125 34.08007812 C-5.65182571 31.77032769 -5.60733634 29.46041398 -5.5703125 27.15039062 C-5.30561747 17.5607104 -3.70277865 8.87161681 0 0 Z " fill="#1B98C8" transform="translate(53,143)"/>
<path d="M0 0 C0.99 0 1.98 0 3 0 C6.11389672 11.14775025 8.19321639 22.39215382 8 34 C5.84721532 30.41502803 5.44860471 26.98960768 4.9375 22.875 C4.48587478 18.28373754 4.48587478 18.28373754 3 14 C2.93003986 12.29297265 2.91559846 10.58331997 2.9375 8.875 C2.94652344 7.96492188 2.95554688 7.05484375 2.96484375 6.1171875 C2.97644531 5.41851562 2.98804688 4.71984375 3 4 C-2.29158974 5.40071493 -4.77478044 8.85487245 -8 13 C-8 9.05645499 -6.62696952 7.85854032 -4.1875 4.8125 C-3.47980469 3.91144531 -2.77210938 3.01039062 -2.04296875 2.08203125 C-1.36878906 1.39496094 -0.69460937 0.70789063 0 0 Z " fill="#6AB4D1" transform="translate(201,66)"/>
<path d="M0 0 C0 0.66 0 1.32 0 2 C-1.06541016 2.30744141 -1.06541016 2.30744141 -2.15234375 2.62109375 C-3.07144531 2.89050781 -3.99054688 3.15992188 -4.9375 3.4375 C-5.85402344 3.70433594 -6.77054688 3.97117188 -7.71484375 4.24609375 C-9.9402493 4.79026051 -9.9402493 4.79026051 -11 6 C-19.08737425 6.9226441 -27.87734784 7.88747496 -36 7 C-36.66 6.34 -37.32 5.68 -38 5 C-35.42528197 3.71264098 -33.49789284 3.84037756 -30.6171875 3.7890625 C-29.53179687 3.76070312 -28.44640625 3.73234375 -27.328125 3.703125 C-25.04963221 3.65157539 -22.77096559 3.60715187 -20.4921875 3.5703125 C-13.35436132 3.36829855 -6.69233537 0 0 0 Z " fill="#1A8DBE" transform="translate(148,236)"/>
<path d="M0 0 C-1.0975223 2.99324263 -1.67682892 3.84610901 -4.625 5.25 C-5.40875 5.4975 -6.1925 5.745 -7 6 C-7 6.33 -7 6.66 -7 7 C-9.31 7.33 -11.62 7.66 -14 8 C-14.33 8.99 -14.66 9.98 -15 11 C-20.48740692 13.17765689 -25.5940204 13.24742584 -31.4375 13.125 C-32.26443359 13.11597656 -33.09136719 13.10695312 -33.94335938 13.09765625 C-35.96236708 13.07431512 -37.98122356 13.03845288 -40 13 C-40 12.67 -40 12.34 -40 12 C-38.91460937 11.95101562 -37.82921875 11.90203125 -36.7109375 11.8515625 C-35.26560216 11.77648014 -33.82029081 11.70093472 -32.375 11.625 C-31.66214844 11.5940625 -30.94929687 11.563125 -30.21484375 11.53125 C-25.82847392 11.28979845 -22.1405166 10.60657269 -18 9 C-18 8.34 -18 7.68 -18 7 C-12.61602671 4.12020033 -12.61602671 4.12020033 -9.4375 3.5 C-5.92813342 2.78012993 -3.5263916 0 0 0 Z " fill="#1D8AB7" transform="translate(172,196)"/>
<path d="M0 0 C7.83098592 1.95774648 7.83098592 1.95774648 11 5 C11 5.66 11 6.32 11 7 C13.31 7.66 15.62 8.32 18 9 C18 9.66 18 10.32 18 11 C21.82517513 13.39073445 25.59665524 13.55966552 30 14 C30 14.99 30 15.98 30 17 C18.84731883 16.49305995 8.93224562 9.38347391 1 2 C0.67 1.34 0.34 0.68 0 0 Z " fill="#61ABCD" transform="translate(66,224)"/>
<path d="M0 0 C2.31 0.33 4.62 0.66 7 1 C7.33 2.32 7.66 3.64 8 5 C8.99 5 9.98 5 11 5 C11.185625 5.598125 11.37125 6.19625 11.5625 6.8125 C13.72273753 10.09981799 16.35107655 10.64854687 20 12 C19.67 12.66 19.34 13.32 19 14 C19.39938767 16.09821215 19.39938767 16.09821215 20 18 C12.49087573 15.95205702 7.72441171 8.77428098 3 3 C2.01709032 1.98319689 1.02665213 0.97261781 0 0 Z " fill="#3B9BB8" transform="translate(104,188)"/>
<path d="M0 0 C0.66 0 1.32 0 2 0 C2 9.57 2 19.14 2 29 C0 28 0 28 -1 25 C-1.09755436 22.07336916 -1.13911256 19.17600502 -1.125 16.25 C-1.12886719 15.46367187 -1.13273437 14.67734375 -1.13671875 13.8671875 C-1.12886771 9.14085953 -0.78516377 4.66113097 0 0 Z " fill="#49A5BB" transform="translate(46,158)"/>
<path d="M0 0 C2.97 0 5.94 0 9 0 C7.02 0.99 7.02 0.99 5 2 C4.39873291 2.36125977 3.79746582 2.72251953 3.17797852 3.09472656 C0.14648119 4.35476379 -2.57237577 4.36553413 -5.84765625 4.484375 C-6.50076279 4.5084845 -7.15386932 4.53259399 -7.82676697 4.55743408 C-9.2024725 4.60557643 -10.57835029 4.64900094 -11.9543457 4.68798828 C-14.05954675 4.74991313 -16.16319647 4.83297797 -18.26757812 4.91796875 C-19.60672932 4.9622124 -20.94592193 5.00522331 -22.28515625 5.046875 C-23.50082275 5.08651367 -24.71648926 5.12615234 -25.96899414 5.16699219 C-29 5 -29 5 -32 3 C-30.865625 3.020625 -29.73125 3.04125 -28.5625 3.0625 C-25.18424326 3.41577477 -25.18424326 3.41577477 -24 2 C-22.21928754 1.91273777 -20.4351686 1.89300959 -18.65234375 1.90234375 C-17.57275391 1.90556641 -16.49316406 1.90878906 -15.38085938 1.91210938 C-13.67639648 1.92467773 -13.67639648 1.92467773 -11.9375 1.9375 C-10.22723633 1.94426758 -10.22723633 1.94426758 -8.48242188 1.95117188 C-5.65489649 1.96300253 -2.8274736 1.9794859 0 2 C0 1.34 0 0.68 0 0 Z " fill="#0995D0" transform="translate(136,236)"/>
<path d="M0 0 C0 3.20395416 -0.74335022 5.09399739 -2 8 C-2.99 8 -3.98 8 -5 8 C-5.33 8.99 -5.66 9.98 -6 11 C-6.66 11 -7.32 11 -8 11 C-8 11.99 -8 12.98 -8 14 C-11.3 14 -14.6 14 -18 14 C-14.37967503 11.05848596 -10.67506604 8.24995458 -6.9375 5.4609375 C-4.5861386 3.68793516 -2.28547925 1.85695189 0 0 Z " fill="#48A1C6" transform="translate(191,79)"/>
<path d="M0 0 C6.89174328 0.0292023 12.85405387 1.39688288 19.25 3.8125 C19.91064453 4.06080566 20.57128906 4.30911133 21.25195312 4.56494141 C25.75827816 6.33657219 29.84355299 8.51797659 34 11 C33.34 11.33 32.68 11.66 32 12 C29.875 11.0625 29.875 11.0625 28 10 C28 10.66 28 11.32 28 12 C27.01 12 26.02 12 25 12 C24.67 11.34 24.34 10.68 24 10 C23.01 9.67 22.02 9.34 21 9 C21 8.01 21 7.02 21 6 C20.34644531 5.87753906 19.69289062 5.75507813 19.01953125 5.62890625 C15.21408317 4.83630969 11.45547088 3.89043633 7.6875 2.9375 C6.94693359 2.75123047 6.20636719 2.56496094 5.44335938 2.37304688 C3.62863559 1.91643895 1.81428029 1.45836694 0 1 C0 0.67 0 0.34 0 0 Z " fill="#79AECC" transform="translate(136,4)"/>
<path d="M0 0 C-1.48995995 3.87389588 -3.62132522 5.34925521 -7.0625 7.5625 C-11.04938989 9.95530885 -11.04938989 9.95530885 -13 14 C-14.9375 14.8125 -14.9375 14.8125 -17 15 C-17.66 14.34 -18.32 13.68 -19 13 C-5.19444444 0 -5.19444444 0 0 0 Z " fill="#59A9C4" transform="translate(83,112)"/>
<path d="M0 0 C0.90105469 0.00902344 1.80210937 0.01804687 2.73046875 0.02734375 C3.41753906 0.03894531 4.10460937 0.05054687 4.8125 0.0625 C4.8125 0.3925 4.8125 0.7225 4.8125 1.0625 C4.20921875 1.25585938 3.6059375 1.44921875 2.984375 1.6484375 C2.18515625 1.90882812 1.3859375 2.16921875 0.5625 2.4375 C-0.22640625 2.69273438 -1.0153125 2.94796875 -1.828125 3.2109375 C-4.15591398 3.97754297 -4.15591398 3.97754297 -6.03710938 5.10351562 C-8.52491782 6.21297425 -10.23953954 6.29260206 -12.953125 6.2578125 C-13.84257812 6.25136719 -14.73203125 6.24492188 -15.6484375 6.23828125 C-16.56882813 6.22152344 -17.48921875 6.20476562 -18.4375 6.1875 C-19.37335938 6.17847656 -20.30921875 6.16945313 -21.2734375 6.16015625 C-23.57838657 6.13663636 -25.8828116 6.10376853 -28.1875 6.0625 C-28.1875 5.7325 -28.1875 5.4025 -28.1875 5.0625 C-21.5875 4.4025 -14.9875 3.7425 -8.1875 3.0625 C-8.1875 2.4025 -8.1875 1.7425 -8.1875 1.0625 C-5.17259443 0.05753148 -3.14568308 -0.04085303 0 0 Z " fill="#1490C5" transform="translate(160.1875,99.9375)"/>
<path d="M0 0 C0.66 0.33 1.32 0.66 2 1 C0.21170413 4.57659173 -2.51666774 7.47882921 -6.3125 8.8125 C-6.869375 8.874375 -7.42625 8.93625 -8 9 C-8.33 11.31 -8.66 13.62 -9 16 C-8.01 15.67 -7.02 15.34 -6 15 C-6 15.99 -6 16.98 -6 18 C-9.875 17.125 -9.875 17.125 -11 16 C-11.99 16.99 -12.98 17.98 -14 19 C-14.33 18.01 -14.66 17.02 -15 16 C-14.34 16 -13.68 16 -13 16 C-11.91887052 13.98189163 -11.048936 12.260992 -10.625 10 C-9.76744189 7.25581405 -8.10137729 5.8980182 -6 4 C-5.67 4.99 -5.34 5.98 -5 7 C-5 5.35 -5 3.7 -5 2 C-4.360625 1.855625 -3.72125 1.71125 -3.0625 1.5625 C-1.02454854 1.18992819 -1.02454854 1.18992819 0 0 Z " fill="#0B609D" transform="translate(70,30)"/>
<path d="M0 0 C0.66 0 1.32 0 2 0 C2 1.32 2 2.64 2 4 C0.68 4.33 -0.64 4.66 -2 5 C-2 5.66 -2 6.32 -2 7 C-5.71016634 8.18725323 -9.12790678 8.34572261 -13 8 C-15.4375 6 -15.4375 6 -17 4 C-13.53777385 2.93276039 -10.35960734 2.89826514 -6.75 2.9375 C-5.67234375 2.94652344 -4.5946875 2.95554687 -3.484375 2.96484375 C-2.66453125 2.97644531 -1.8446875 2.98804687 -1 3 C-0.67 2.01 -0.34 1.02 0 0 Z " fill="#23689C" transform="translate(83,76)"/>
<path d="M0 0 C0.33 0 0.66 0 1 0 C0.4158443 13.69691386 -0.16182245 27.02488747 -5 40 C-6.55544021 35.33367936 -4.51147153 31.53441459 -3 27 C-2.85222064 25.30132812 -2.75252934 23.59822511 -2.68359375 21.89453125 C-2.64169922 20.91162109 -2.59980469 19.92871094 -2.55664062 18.91601562 C-2.51732422 17.89185547 -2.47800781 16.86769531 -2.4375 15.8125 C-2.39431641 14.77673828 -2.35113281 13.74097656 -2.30664062 12.67382812 C-2.20055634 10.1160181 -2.09849854 7.55811155 -2 5 C-1.34 5 -0.68 5 0 5 C0 3.35 0 1.7 0 0 Z " fill="#469EC5" transform="translate(206,144)"/>
<path d="M0 0 C0.66 0.33 1.32 0.66 2 1 C2 4.63 2 8.26 2 12 C2.66 12 3.32 12 4 12 C4.33 15.63 4.66 19.26 5 23 C4.34 22.34 3.68 21.68 3 21 C2.34 21.66 1.68 22.32 1 23 C1.01740234 22.02160156 1.01740234 22.02160156 1.03515625 21.0234375 C1.08470994 16.2238086 0.99413751 11.72215315 0 7 C-0.99 7 -1.98 7 -3 7 C-2.25 2.25 -2.25 2.25 0 0 Z " fill="#1092D1" transform="translate(201,73)"/>
<path d="M0 0 C1.24270671 2.48541343 0.95365685 3.76415379 0.625 6.5 C0.53476563 7.2940625 0.44453125 8.088125 0.3515625 8.90625 C0 11 0 11 -1 13 C-2.875 12.6875 -2.875 12.6875 -5 12 C-7 9 -7 9 -7 7.125 C-5.44273106 3.81580351 -2.88630051 2.21078337 0 0 Z " fill="#1D8DC3" transform="translate(185,201)"/>
<path d="M0 0 C0.80421387 0.00322266 1.60842773 0.00644531 2.43701172 0.00976562 C8.5707099 0.15388331 12.97719562 1.27583815 18.3125 4.4375 C17.9825 5.4275 17.6525 6.4175 17.3125 7.4375 C14.6725 6.4475 12.0325 5.4575 9.3125 4.4375 C9.3125 3.7775 9.3125 3.1175 9.3125 2.4375 C6.89553128 2.38338876 4.47978213 2.34377722 2.0625 2.3125 C1.03962891 2.28736328 1.03962891 2.28736328 -0.00390625 2.26171875 C-3.85327848 2.2243462 -6.33542502 2.6076976 -9.6875 4.4375 C-10.6775 4.1075 -11.6675 3.7775 -12.6875 3.4375 C-8.9158849 -0.37456137 -5.04215735 -0.06180377 0 0 Z " fill="#1594C9" transform="translate(93.6875,182.5625)"/>
<path d="M0 0 C0 3.63306931 -1.07932067 4.97123644 -3 8 C-3.68096422 9.32608822 -4.35330586 10.65686601 -5 12 C-5.99 11.67 -6.98 11.34 -8 11 C-10.50037734 13.17424117 -11.43628586 14.73045798 -12 18 C-14.31 18 -16.62 18 -19 18 C-15.84884322 14.72764488 -12.57449082 11.7974276 -9 9 C-8.34 9 -7.68 9 -7 9 C-6.773125 8.443125 -6.54625 7.88625 -6.3125 7.3125 C-4.64103234 4.36753316 -2.44723648 2.31843456 0 0 Z " fill="#7CC5D7" transform="translate(179,200)"/>
<path d="M0 0 C1.05904289 0.00212242 1.05904289 0.00212242 2.13948059 0.00428772 C4.39120751 0.00987861 6.64283446 0.02242937 8.89453125 0.03515625 C10.4225246 0.04017243 11.95051952 0.04473513 13.47851562 0.04882812 C17.2213926 0.05984505 20.96419498 0.07710338 24.70703125 0.09765625 C24.70703125 0.42765625 24.70703125 0.75765625 24.70703125 1.09765625 C24.01552979 1.1227124 23.32402832 1.14776855 22.61157227 1.17358398 C19.49735259 1.28917786 16.38346336 1.41206867 13.26953125 1.53515625 C11.63661133 1.59413086 11.63661133 1.59413086 9.97070312 1.65429688 C8.41899414 1.71713867 8.41899414 1.71713867 6.8359375 1.78125 C5.8776001 1.81790771 4.9192627 1.85456543 3.93188477 1.89233398 C1.735642 1.85600049 1.735642 1.85600049 0.70703125 3.09765625 C-1.31261074 3.17009678 -3.33463999 3.18142813 -5.35546875 3.16015625 C-6.46019531 3.15113281 -7.56492187 3.14210938 -8.703125 3.1328125 C-9.98509766 3.11541016 -9.98509766 3.11541016 -11.29296875 3.09765625 C-9.18807199 -1.11213727 -4.11832646 -0.03105416 0 0 Z " fill="#148EC6" transform="translate(106.29296875,105.90234375)"/>
<path d="M0 0 C1.175625 -0.061875 2.35125 -0.12375 3.5625 -0.1875 C4.55443359 -0.23970703 4.55443359 -0.23970703 5.56640625 -0.29296875 C8 0 8 0 10.96875 1.46875 C16.33219412 3.90576177 22.14727678 3.57228805 27.9375 3.6875 C29.67870117 3.73874023 29.67870117 3.73874023 31.45507812 3.79101562 C34.30328882 3.87306285 37.15120839 3.94235536 40 4 C40 4.33 40 4.66 40 5 C11.84846857 5.82555811 11.84846857 5.82555811 0 1 C0 0.67 0 0.34 0 0 Z " fill="#1F8AAD" transform="translate(90,227)"/>
<path d="M0 0 C2.125 0.375 2.125 0.375 4 1 C-0.57548992 7.01350104 -5.06590633 12.30217584 -11 17 C-11.66 16.67 -12.32 16.34 -13 16 C-12.26418258 14.8450079 -11.51069961 13.70125815 -10.75 12.5625 C-10.33234375 11.92441406 -9.9146875 11.28632813 -9.484375 10.62890625 C-7.72751123 8.70097943 -6.53910197 8.38520564 -4 8 C-4 7.01 -4 6.02 -4 5 C-3.01 5 -2.02 5 -1 5 C-1.33 4.01 -1.66 3.02 -2 2 C-1.34 1.34 -0.68 0.68 0 0 Z " fill="#5EAECD" transform="translate(182,184)"/>
<path d="M0 0 C0 0.99 0 1.98 0 3 C-6.20918975 6.24571282 -12.05829437 6.66944259 -19 7 C-16.44612397 4.44612397 -13.99273882 3.66911986 -10.625 2.375 C-9.48289062 1.92898437 -8.34078125 1.48296875 -7.1640625 1.0234375 C-4 0 -4 0 0 0 Z " fill="#5587AA" transform="translate(109,5)"/>
<path d="M0 0 C9.20104875 -0.46005244 17.51451268 1.43857284 26 5 C26 5.66 26 6.32 26 7 C24.2365625 6.5978125 24.2365625 6.5978125 22.4375 6.1875 C19.34344852 5.49059703 16.24983881 4.85830289 13.1328125 4.26953125 C12.46193604 4.14231689 11.79105957 4.01510254 11.09985352 3.8840332 C9.12096799 3.51102099 7.14057901 3.14601255 5.16015625 2.78125 C2 2 2 2 0 0 Z " fill="#175F90" transform="translate(131,5)"/>
<path d="M0 0 C1.670625 0.2165625 1.670625 0.2165625 3.375 0.4375 C13.64364632 1.707218 23.65797023 2.25361926 34 2 C34 2.33 34 2.66 34 3 C28.11850763 3.83731923 22.37612641 4.21208379 16.4375 4.25 C15.62603516 4.270625 14.81457031 4.29125 13.97851562 4.3125 C8.54670314 4.34757224 4.84567795 3.47162097 0 1 C0 0.67 0 0.34 0 0 Z " fill="#8BCBDE" transform="translate(98,227)"/>
<path d="M0 0 C0.33 0 0.66 0 1 0 C0.49297343 5.475887 -0.59049526 10.37258282 -2.28125 15.60546875 C-3.01605256 18.05347945 -3.53595735 20.48792298 -4 23 C-4.66 23 -5.32 23 -6 23 C-6 23.99 -6 24.98 -6 26 C-6.66 26 -7.32 26 -8 26 C-7.77183594 25.31292969 -7.54367188 24.62585938 -7.30859375 23.91796875 C-7.02113281 23.01691406 -6.73367187 22.11585938 -6.4375 21.1875 C-6.14746094 20.29417969 -5.85742188 19.40085938 -5.55859375 18.48046875 C-4.75020444 15.88784861 -4.75020444 15.88784861 -6 13 C-5.0390625 10.625 -5.0390625 10.625 -3.625 8 C-2.19261822 5.31128337 -0.96540598 2.89621794 0 0 Z " fill="#79D1EC" transform="translate(192,168)"/>
<path d="M0 0 C1.32 0 2.64 0 4 0 C4 0.66 4 1.32 4 2 C4.66 2 5.32 2 6 2 C6 2.66 6 3.32 6 4 C6.99 4 7.98 4 9 4 C9 5.65 9 7.3 9 9 C9.66 9 10.32 9 11 9 C11 9.66 11 10.32 11 11 C11.66 11.33 12.32 11.66 13 12 C9.33118845 11.29445932 6.29549466 9.72264494 3 8 C3.33 6.35 3.66 4.7 4 3 C2.68 2.34 1.36 1.68 0 1 C0 0.67 0 0.34 0 0 Z " fill="#0E90C9" transform="translate(63,216)"/>
<path d="M0 0 C2.31 0.66 4.62 1.32 7 2 C7 2.66 7 3.32 7 4 C7.66 4 8.32 4 9 4 C9 3.01 9 2.02 9 1 C10.98 0.67 12.96 0.34 15 0 C15 1.66666667 15 3.33333333 15 5 C13.68 4.67 12.36 4.34 11 4 C11 4.66 11 5.32 11 6 C5.62694301 5.7357513 5.62694301 5.7357513 3 5 C1 2.4375 1 2.4375 0 0 Z " fill="#068DD1" transform="translate(121,201)"/>
<path d="M0 0 C0.66 0.99 1.32 1.98 2 3 C0.7260411 5.03833424 -0.61061923 7.03852126 -2 9 C-2.66 9 -3.32 9 -4 9 C-4.66 10.65 -5.32 12.3 -6 14 C-7.32 14 -8.64 14 -10 14 C-6.84577733 9.17403931 -3.71080883 4.42442592 0 0 Z " fill="#2E8EB8" transform="translate(198,72)"/>
<path d="M0 0 C0 0.66 0 1.32 0 2 C-0.99 2 -1.98 2 -3 2 C-3.66 3.98 -4.32 5.96 -5 8 C-5.99 7.67 -6.98 7.34 -8 7 C-8.350625 7.45375 -8.70125 7.9075 -9.0625 8.375 C-11.77096206 10.64661334 -14.60795328 11.16798854 -18 12 C-13.92779659 7.36611336 -6.379187 0 0 0 Z " fill="#4688AF" transform="translate(90,12)"/>
<path d="M0 0 C0.71285156 0.47050781 1.42570312 0.94101563 2.16015625 1.42578125 C7.31769625 4.77852933 12.23958562 7.82384346 18 10 C16.375 11.125 16.375 11.125 14 12 C10.75 11.125 10.75 11.125 8 10 C8 9.34 8 8.68 8 8 C7.01 8 6.02 8 5 8 C4.67 7.01 4.34 6.02 4 5 C2.67151309 3.99357052 1.33849671 2.99307821 0 2 C0 1.34 0 0.68 0 0 Z " fill="#6BB4CC" transform="translate(80,216)"/>
<path d="M0 0 C0.33 0.66 0.66 1.32 1 2 C0.67 2.99 0.34 3.98 0 5 C-0.65469619 11.38328785 0.45025077 16.15682467 3 22 C1 22 1 22 -0.5 20.75 C-2.62890869 18.26627319 -3.95509873 16.17598575 -4.08203125 12.8515625 C-3.49474736 8.00008688 -2.52694133 4.28481355 0 0 Z " fill="#7AC8DE" transform="translate(77,194)"/>
<path d="M0 0 C12.87 0.495 12.87 0.495 26 1 C26 1.33 26 1.66 26 2 C20.39 2 14.78 2 9 2 C9 2.66 9 3.32 9 4 C5.7 3.67 2.4 3.34 -1 3 C-0.67 2.01 -0.34 1.02 0 0 Z " fill="#125E96" transform="translate(123,17)"/>
<path d="M0 0 C2.3125 0.5 2.3125 0.5 5 2 C6.34219295 4.5690412 7.20425705 7.21813439 8 10 C3.95210451 9.04307073 0.98590087 7.98590087 -2 5 C-1.34 5 -0.68 5 0 5 C0 3.35 0 1.7 0 0 Z " fill="#225F87" transform="translate(176,23)"/>
<path d="M0 0 C4.08963819 2.28538605 7.46362104 4.95706926 11 8 C8 8 8 8 5 6 C5 6.99 5 7.98 5 9 C2.525 8.01 2.525 8.01 0 7 C0 6.34 0 5.68 0 5 C-0.66 5 -1.32 5 -2 5 C-1.67 4.34 -1.34 3.68 -1 3 C-0.34 3.33 0.32 3.66 1 4 C0.67 2.68 0.34 1.36 0 0 Z " fill="#5391C3" transform="translate(170,16)"/>
<path d="M0 0 C1.32 0.66 2.64 1.32 4 2 C2.29908111 3.30141481 0.58889459 4.59072165 -1.125 5.875 C-2.07632813 6.59429687 -3.02765625 7.31359375 -4.0078125 8.0546875 C-6.97248274 9.98211019 -9.61122655 11.04470778 -13 12 C-11.33333333 10.33333333 -9.66666667 8.66666667 -8 7 C-7.34 6.01 -6.68 5.02 -6 4 C-3.5 2.75 -3.5 2.75 -1 2 C-0.34 2.33 0.32 2.66 1 3 C0.67 2.01 0.34 1.02 0 0 Z " fill="#5DB0D0" transform="translate(170,223)"/>
<path d="M0 0 C0.99 0.66 1.98 1.32 3 2 C2.54109375 2.42410156 2.0821875 2.84820313 1.609375 3.28515625 C-2.52359619 7.23579048 -5.40161123 10.90715802 -8 16 C-8.33 16 -8.66 16 -9 16 C-8.58789699 10.74568665 -7.7645482 7.7645482 -4 4 C-3.01 3.67 -2.02 3.34 -1 3 C-0.67 2.01 -0.34 1.02 0 0 Z " fill="#5186AE" transform="translate(111,27)"/>
<path d="M0 0 C3.96 0 7.92 0 12 0 C12 0.66 12 1.32 12 2 C3.09 2.99 3.09 2.99 -6 4 C-6.33 3.01 -6.66 2.02 -7 1 C-4.69 1 -2.38 1 0 1 C0 0.67 0 0.34 0 0 Z " fill="#195C8D" transform="translate(118,4)"/>
<path d="M0 0 C0.99 0 1.98 0 3 0 C3.66 0.99 4.32 1.98 5 3 C6.01124839 3.93003414 7.05444273 4.82639958 8.125 5.6875 C9.07375 6.450625 10.0225 7.21375 11 8 C10.67 9.65 10.34 11.3 10 13 C6.40523299 9.50794062 3.07973809 5.95966325 0 2 C0 1.34 0 0.68 0 0 Z " fill="#4DA9C5" transform="translate(56,211)"/>
<path d="M0 0 C0.66 0.33 1.32 0.66 2 1 C1.57316368 2.27445454 1.13302798 3.54445882 0.6875 4.8125 C0.44386719 5.52019531 0.20023437 6.22789063 -0.05078125 6.95703125 C-1.06724258 9.14472373 -2.20820594 10.40896718 -4 12 C-4.99528744 9.01413769 -5.23314275 7.10857 -5 4 C-3 1 -3 1 0 0 Z " fill="#11629F" transform="translate(102,35)"/>
<path d="M0 0 C0.66 0.33 1.32 0.66 2 1 C0.07289294 11.55808656 0.07289294 11.55808656 -2 16 C-2.66 16 -3.32 16 -4 16 C-3.6083965 10.04492601 -2.62875405 5.37180176 0 0 Z " fill="#1C88BA" transform="translate(53,143)"/>
<path d="M0 0 C0.99 0.33 1.98 0.66 3 1 C2.01 2.98 1.02 4.96 0 7 C-0.66 7 -1.32 7 -2 7 C-2.2475 7.969375 -2.495 8.93875 -2.75 9.9375 C-3.1625 10.948125 -3.575 11.95875 -4 13 C-6.125 13.875 -6.125 13.875 -8 14 C-7.5875 13.34 -7.175 12.68 -6.75 12 C-4.97086099 8.9500474 -3.40701105 5.84701503 -1.8671875 2.671875 C-1 1 -1 1 0 0 Z " fill="#4898BC" transform="translate(183,194)"/>
<path d="M0 0 C1.08667969 0.11085938 2.17335937 0.22171875 3.29296875 0.3359375 C4.12441406 0.43132813 4.95585937 0.52671875 5.8125 0.625 C5.8125 0.955 5.8125 1.285 5.8125 1.625 C5.05324219 1.82996094 4.29398438 2.03492188 3.51171875 2.24609375 C2.51785156 2.51550781 1.52398437 2.78492188 0.5 3.0625 C-0.48613281 3.32933594 -1.47226563 3.59617187 -2.48828125 3.87109375 C-4.40267526 4.40579425 -6.30183615 4.99644538 -8.1875 5.625 C-8.5175 4.305 -8.8475 2.985 -9.1875 1.625 C-5.54331659 -0.80445561 -4.25826636 -0.4578781 0 0 Z " fill="#437AA9" transform="translate(126.1875,20.375)"/>
<path d="M0 0 C0.66 0.33 1.32 0.66 2 1 C2 3.66420516 1.90837763 5.52260646 1 8 C0.01 8.33 -0.98 8.66 -2 9 C-2.33 8.34 -2.66 7.68 -3 7 C-4.32 6.67 -5.64 6.34 -7 6 C-4.69 4.02 -2.38 2.04 0 0 Z " fill="#0F61AB" transform="translate(82,18)"/>
<path d="M0 0 C1.8871875 0.0309375 1.8871875 0.0309375 3.8125 0.0625 C3.23757812 0.33964844 2.66265625 0.61679688 2.0703125 0.90234375 C-0.14270189 2.0394809 -2.21466029 3.28892338 -4.3125 4.625 C-6.25291563 5.85881145 -8.13054025 7.03402013 -10.1875 8.0625 C-10.1875 7.4025 -10.1875 6.7425 -10.1875 6.0625 C-10.8475 5.7325 -11.5075 5.4025 -12.1875 5.0625 C-11.1975 5.0625 -10.2075 5.0625 -9.1875 5.0625 C-8.919375 4.423125 -8.65125 3.78375 -8.375 3.125 C-6.40503157 -0.29652411 -3.60267551 -0.05906025 0 0 Z " fill="#58AED2" transform="translate(88.1875,185.9375)"/>
<path d="M0 0 C0.99 0 1.98 0 3 0 C3.33 1.98 3.66 3.96 4 6 C3.67 5.34 3.34 4.68 3 4 C-2.29158974 5.40071493 -4.77478044 8.85487245 -8 13 C-8 9.05645499 -6.62696952 7.85854032 -4.1875 4.8125 C-3.47980469 3.91144531 -2.77210938 3.01039062 -2.04296875 2.08203125 C-1.36878906 1.39496094 -0.69460937 0.70789063 0 0 Z " fill="#8DCBDB" transform="translate(201,66)"/>
<path d="M0 0 C0 0.66 0 1.32 0 2 C-1.06541016 2.30744141 -1.06541016 2.30744141 -2.15234375 2.62109375 C-3.53099609 3.02521484 -3.53099609 3.02521484 -4.9375 3.4375 C-6.31228516 3.83775391 -6.31228516 3.83775391 -7.71484375 4.24609375 C-9.9402493 4.79026051 -9.9402493 4.79026051 -11 6 C-12.51928038 6.07179964 -14.04167482 6.08392007 -15.5625 6.0625 C-16.38878906 6.05347656 -17.21507812 6.04445312 -18.06640625 6.03515625 C-18.70449219 6.02355469 -19.34257812 6.01195312 -20 6 C-17.616756 3.616756 -16.45352292 3.54841764 -13.1875 3 C-8.6877184 2.18303677 -4.50752068 0 0 0 Z " fill="#2188AE" transform="translate(148,236)"/>
<path d="M0 0 C2.97 0.99 5.94 1.98 9 3 C8.67 3.66 8.34 4.32 8 5 C8.39938767 7.09821215 8.39938767 7.09821215 9 9 C5.65851561 7.82596494 3.18896282 6.84565166 1 4 C0.67 2.68 0.34 1.36 0 0 Z " fill="#409CC4" transform="translate(115,197)"/>
<path d="M0 0 C0 0.66 0 1.32 0 2 C-1.134375 2.268125 -2.26875 2.53625 -3.4375 2.8125 C-4.613125 3.204375 -5.78875 3.59625 -7 4 C-7.33 4.99 -7.66 5.98 -8 7 C-11.3 7 -14.6 7 -18 7 C-14.87351251 4.91567501 -11.94269132 3.71441389 -8.4375 2.375 C-7.28121094 1.92898437 -6.12492188 1.48296875 -4.93359375 1.0234375 C-2 0 -2 0 0 0 Z " fill="#73B9D1" transform="translate(173,93)"/>
<path d="M0 0 C0.33 0.99 0.66 1.98 1 3 C1.66 3 2.32 3 3 3 C3.55808089 4.43120744 4.09596462 5.87030355 4.625 7.3125 C4.92664062 8.11300781 5.22828125 8.91351563 5.5390625 9.73828125 C5.76722656 10.85783203 5.76722656 10.85783203 6 12 C5.01 13.485 5.01 13.485 4 15 C3.32532438 13.25307205 2.66055844 11.50231475 2 9.75 C1.62875 8.77546875 1.2575 7.8009375 0.875 6.796875 C0 4 0 4 0 0 Z " fill="#59ADC9" transform="translate(47,189)"/>
<path d="M0 0 C0.33 0 0.66 0 1 0 C1 1.65 1 3.3 1 5 C0.34 5 -0.32 5 -1 5 C-1.103125 5.721875 -1.20625 6.44375 -1.3125 7.1875 C-2.06340528 10.25938525 -3.21841728 12.40185854 -5 15 C-5.33 15 -5.66 15 -6 15 C-6 13.02 -6 11.04 -6 9 C-5.34 8.67 -4.68 8.34 -4 8 C-3.27306096 6.02111039 -2.60183749 4.02045442 -2 2 C-1.34 2 -0.68 2 0 2 C0 1.34 0 0.68 0 0 Z " fill="#1192CD" transform="translate(60,135)"/>
<path d="M0 0 C5.57142857 5.14285714 5.57142857 5.14285714 6 9 C2.40094092 8.44449305 1.00090201 7.25112752 -1.25 4.4375 C-1.77078125 3.79683594 -2.2915625 3.15617187 -2.828125 2.49609375 C-3.21484375 2.00238281 -3.6015625 1.50867187 -4 1 C-2.68 1.33 -1.36 1.66 0 2 C0 1.34 0 0.68 0 0 Z " fill="#B6C3C8" transform="translate(191,37)"/>
<path d="M0 0 C0.66 0 1.32 0 2 0 C2 0.66 2 1.32 2 2 C4.31 2 6.62 2 9 2 C8.67 2.99 8.34 3.98 8 5 C4.71303767 5.79953138 3.28976808 6.09658936 0 5 C0 3.35 0 1.7 0 0 Z " fill="#0A97DE" transform="translate(72,220)"/>
<path d="M0 0 C1.32 0.66 2.64 1.32 4 2 C1.03 4.97 -1.94 7.94 -5 11 C-5.33 9.68 -5.66 8.36 -6 7 C-5.34 7 -4.68 7 -4 7 C-3.896875 6.360625 -3.79375 5.72125 -3.6875 5.0625 C-3.460625 4.381875 -3.23375 3.70125 -3 3 C-2.01 2.67 -1.02 2.34 0 2 C0 1.34 0 0.68 0 0 Z " fill="#56A6C8" transform="translate(180,213)"/>
<path d="M0 0 C1.485 0.99 1.485 0.99 3 2 C3 2.66 3 3.32 3 4 C3.66 4 4.32 4 5 4 C6.37562854 5.28965176 7.70766393 6.62689293 9 8 C9.66 8.66 10.32 9.32 11 10 C10.01 10.33 9.02 10.66 8 11 C4.21690466 8.91543726 1.3622715 7.22304165 0 3 C0 2.01 0 1.02 0 0 Z " fill="#288EAE" transform="translate(75,212)"/>
<path d="M0 0 C0.66 0.33 1.32 0.66 2 1 C2 4 2 4 0.5390625 5.60546875 C-0.09257812 6.12753906 -0.72421875 6.64960938 -1.375 7.1875 C-2.31472656 7.98220703 -2.31472656 7.98220703 -3.2734375 8.79296875 C-5 10 -5 10 -7 10 C-7 9.34 -7 8.68 -7 8 C-6.01 8 -5.02 8 -4 8 C-3.896875 7.236875 -3.79375 6.47375 -3.6875 5.6875 C-2.95635961 2.82940576 -2.23048087 1.84257115 0 0 Z " fill="#1E90BA" transform="translate(171,210)"/>
<path d="M0 0 C1.47118907 3.82509158 0.45442741 6.28312995 -1 10 C-1.33 10.66 -1.66 11.32 -2 12 C-2.66 12 -3.32 12 -4 12 C-5.2077558 8.37673261 -4.54311128 7.35853631 -3 4 C-2.34 4 -1.68 4 -1 4 C-0.67 2.68 -0.34 1.36 0 0 Z " fill="#0B97DA" transform="translate(191,188)"/>
<path d="M0 0 C5.36513131 0.847126 10.6787385 1.91681831 16 3 C16 3.99 16 4.98 16 6 C10.03435204 5.49228528 5.36190101 3.61407872 0 1 C0 0.67 0 0.34 0 0 Z " fill="#7ABFDA" transform="translate(80,235)"/>
<path d="M0 0 C4.35522853 0.50642192 7.44239635 1.38411497 11 4 C11 4.66 11 5.32 11 6 C11.99 6.33 12.98 6.66 14 7 C7.4595734 6.48702536 4.53074157 4.53074157 0 0 Z " fill="#1F8BB4" transform="translate(79,231)"/>
<path d="M0 0 C1.36682561 2.73365122 0.84683011 4.10666379 0 7 C-1.4375 8.8125 -1.4375 8.8125 -3 10 C-3.66 10 -4.32 10 -5 10 C-5 10.99 -5 11.98 -5 13 C-5.66 13 -6.32 13 -7 13 C-5.58832253 7.73829306 -3.25149768 4.27828642 0 0 Z " fill="#5B90B5" transform="translate(60,36)"/>
<path d="M0 0 C2.31 0 4.62 0 7 0 C3.81886649 2.12075567 1.07995044 3.06017176 -2.5625 4.1875 C-3.71878906 4.55230469 -4.87507812 4.91710937 -6.06640625 5.29296875 C-9 6 -9 6 -11 5 C-7.14243493 2.84694043 -4.44870215 1.60746746 0 2 C0 1.34 0 0.68 0 0 Z " fill="#65B5CB" transform="translate(148,236)"/>
<path d="M0 0 C1.33332095 2.6666419 0.67102033 4.16680303 0 7 C-1.98 7.33 -3.96 7.66 -6 8 C-5.65120368 4.74456771 -4.97866739 3.98126893 -2.4375 1.75 C-1.633125 1.1725 -0.82875 0.595 0 0 Z " fill="#0B95DC" transform="translate(185,201)"/>
<path d="M0 0 C1.39211215 4.17633644 -0.0464421 5.78960515 -1.9375 9.6875 C-2.50339844 10.86699219 -3.06929687 12.04648438 -3.65234375 13.26171875 C-4.09707031 14.16535156 -4.54179687 15.06898438 -5 16 C-6.09658936 12.71023192 -5.79953138 11.28696233 -5 8 C-4.34 8 -3.68 8 -3 8 C-3.061875 7.236875 -3.12375 6.47375 -3.1875 5.6875 C-3 3 -3 3 -1.5 1.1875 C-1.005 0.795625 -0.51 0.40375 0 0 Z " fill="#6AB9D3" transform="translate(199,184)"/>
<path d="M0 0 C1.98 0.66 3.96 1.32 6 2 C4.9375 3.5625 4.9375 3.5625 3 5 C-1.60167853 4.83266624 -4.58660308 4.14032517 -8 1 C-5.36 1.33 -2.72 1.66 0 2 C0 1.34 0 0.68 0 0 Z " fill="#48ABD1" transform="translate(132,205)"/>
<path d="M0 0 C-0.99 0.66 -1.98 1.32 -3 2 C-3 2.33 -3 2.66 -3 3 C-7.29 3.66 -11.58 4.32 -16 5 C-13.04634666 2.78475999 -11.27173958 1.50246281 -8 0.25 C-7.34 -0.01296875 -6.68 -0.2759375 -6 -0.546875 C-3.66612598 -1.07564333 -2.24876386 -0.7428952 0 0 Z " fill="#73BDD4" transform="translate(99,107)"/>
<path d="M0 0 C0.56203125 0.30679688 1.1240625 0.61359375 1.703125 0.9296875 C4.06346934 2.02957585 6.20465562 2.60095851 8.75 3.125 C9.54921875 3.29257813 10.3484375 3.46015625 11.171875 3.6328125 C11.77515625 3.75398438 12.3784375 3.87515625 13 4 C13 4.99 13 5.98 13 7 C8.00535076 6.52431912 4.97214597 5.04839109 1 2 C0.67 1.34 0.34 0.68 0 0 Z " fill="#5389AB" transform="translate(56,76)"/>
<path d="M0 0 C2.97 0 5.94 0 9 0 C7.02 0.99 7.02 0.99 5 2 C4.360625 2.37125 3.72125 2.7425 3.0625 3.125 C0.58890178 4.17440531 -1.33953538 4.14780359 -4 4 C-3.67 3.34 -3.34 2.68 -3 2 C-2.01 2 -1.02 2 0 2 C0 1.34 0 0.68 0 0 Z " fill="#118FC6" transform="translate(136,236)"/>
<path d="M0 0 C0.66 0.33 1.32 0.66 2 1 C2 1.66 2 2.32 2 3 C1.071875 3.185625 1.071875 3.185625 0.125 3.375 C-2.19120832 3.87197356 -2.19120832 3.87197356 -4 6 C-6.72869407 5.96712417 -9.2966618 5.43602229 -12 5 C-12 4.67 -12 4.34 -12 4 C-10.02 4 -8.04 4 -6 4 C-6 3.34 -6 2.68 -6 2 C-4.02 2 -2.04 2 0 2 C0 1.34 0 0.68 0 0 Z " fill="#0E91CC" transform="translate(150,226)"/>
<path d="M0 0 C1.65 0 3.3 0 5 0 C2.8709858 2.34191563 0.95591271 3.83554954 -2 5 C-3.32 5 -4.64 5 -6 5 C-6 4.34 -6 3.68 -6 3 C-4.02 2.34 -2.04 1.68 0 1 C0 0.67 0 0.34 0 0 Z " fill="#51A1BB" transform="translate(164,201)"/>
<path d="M0 0 C2.31 0.66 4.62 1.32 7 2 C7 2.66 7 3.32 7 4 C7.66 4.33 8.32 4.66 9 5 C7 6 7 6 4.5 5.3125 C1.70348499 3.84432962 1.06588569 2.90696099 0 0 Z " fill="#1D89B8" transform="translate(121,201)"/>
<path d="M0 0 C0.66 0 1.32 0 2 0 C1.71125 0.78375 1.4225 1.5675 1.125 2.375 C-0.26760284 6.8622758 -1.14271981 11.385279 -2 16 C-2.33 16 -2.66 16 -3 16 C-3.32712342 9.86946489 -3.39366878 5.37330889 0 0 Z " fill="#2186B1" transform="translate(76,192)"/>
<path d="M0 0 C1.8871875 0.0309375 1.8871875 0.0309375 3.8125 0.0625 C1.90848862 1.96651138 0.47824314 2.99770439 -2.234375 3.26171875 C-4.21983273 3.2511578 -6.2044914 3.16165043 -8.1875 3.0625 C-6.45706736 -0.39836529 -3.47359009 -0.0569441 0 0 Z " fill="#298BAE" transform="translate(103.1875,105.9375)"/>
<path d="M0 0 C2.31 0 4.62 0 7 0 C5.875 2 5.875 2 4 4 C0.8125 4.25 0.8125 4.25 -2 4 C-1.34 2.68 -0.68 1.36 0 0 Z " fill="#2C91BC" transform="translate(153,232)"/>
<path d="M0 0 C0.33 0.66 0.66 1.32 1 2 C0.67 2.66 0.34 3.32 0 4 C-0.66 4 -1.32 4 -2 4 C-2 5.32 -2 6.64 -2 8 C-3.32 7.67 -4.64 7.34 -6 7 C-4.60667426 3.63279613 -3.0210714 2.0140476 0 0 Z " fill="#2292C6" transform="translate(176,216)"/>
<path d="M0 0 C0.90105469 0.00902344 1.80210937 0.01804687 2.73046875 0.02734375 C3.41753906 0.03894531 4.10460937 0.05054687 4.8125 0.0625 C4.8125 0.3925 4.8125 0.7225 4.8125 1.0625 C-3.61607143 3.34821429 -3.61607143 3.34821429 -8.1875 3.0625 C-8.1875 2.4025 -8.1875 1.7425 -8.1875 1.0625 C-5.17259443 0.05753148 -3.14568308 -0.04085303 0 0 Z " fill="#1E8BB8" transform="translate(160.1875,99.9375)"/>
<path d="M0 0 C0 0.99 0 1.98 0 3 C-1.96875 4.82421875 -1.96875 4.82421875 -4.5 6.6875 C-5.3353125 7.31011719 -6.170625 7.93273437 -7.03125 8.57421875 C-7.6809375 9.04472656 -8.330625 9.51523438 -9 10 C-9.66 9.67 -10.32 9.34 -11 9 C-7.37 6.03 -3.74 3.06 0 0 Z " fill="#A5E0F1" transform="translate(191,79)"/>
<path d="M0 0 C3.16717283 1.58358642 4.73268318 2.45263699 6.3125 5.6875 C6.539375 6.450625 6.76625 7.21375 7 8 C3.535 6.02 3.535 6.02 0 4 C0 2.68 0 1.36 0 0 Z " fill="#416272" transform="translate(185,33)"/>
<path d="M0 0 C0.66 0 1.32 0 2 0 C2 0.66 2 1.32 2 2 C2.99 2 3.98 2 5 2 C5 2.66 5 3.32 5 4 C5.99 4 6.98 4 8 4 C8 4.66 8 5.32 8 6 C8.66 6.33 9.32 6.66 10 7 C6.33118845 6.29445932 3.29549466 4.72264494 0 3 C0 2.01 0 1.02 0 0 Z " fill="#248EBD" transform="translate(66,221)"/>
<path d="M0 0 C0 0.66 0 1.32 0 2 C-3.21182149 3.90608098 -5.53882603 4.22266247 -9.25 4.125 C-10.14203125 4.10695312 -11.0340625 4.08890625 -11.953125 4.0703125 C-12.96632812 4.03550781 -12.96632812 4.03550781 -14 4 C-14 3.67 -14 3.34 -14 3 C-13.37351563 2.86722656 -12.74703125 2.73445312 -12.1015625 2.59765625 C-11.28429687 2.42105469 -10.46703125 2.24445313 -9.625 2.0625 C-8.81289062 1.88847656 -8.00078125 1.71445313 -7.1640625 1.53515625 C-0.95620438 0 -0.95620438 0 0 0 Z " fill="#128FCC" transform="translate(152,204)"/>
<path d="M0 0 C2.0625 0.4375 2.0625 0.4375 4 1 C1.3401439 4.44216672 -1.90288286 4.99504674 -6 6 C-4 4 -2 2 0 0 Z " fill="#588DAD" transform="translate(78,18)"/>
<path d="M0 0 C-0.99 0.33 -1.98 0.66 -3 1 C-3.7115625 1.804375 -3.7115625 1.804375 -4.4375 2.625 C-4.953125 3.07875 -5.46875 3.5325 -6 4 C-8.1875 3.6875 -8.1875 3.6875 -10 3 C-9 1 -9 1 -6.6875 -0.1875 C-3.88010429 -1.03624754 -2.698065 -0.99928333 0 0 Z " fill="#1D89AA" transform="translate(92,111)"/>
<path d="M0 0 C1.32 0.66 2.64 1.32 4 2 C-1.75 7 -1.75 7 -4 7 C-3.67 6.01 -3.34 5.02 -3 4 C-2.34 4 -1.68 4 -1 4 C-0.67 2.68 -0.34 1.36 0 0 Z " fill="#1295CF" transform="translate(170,192)"/>
<path d="M0 0 C-1.423125 0.680625 -1.423125 0.680625 -2.875 1.375 C-6.00313679 2.80238254 -6.00313679 2.80238254 -8 5 C-8.99 4.67 -9.98 4.34 -11 4 C-10.01 3.67 -9.02 3.34 -8 3 C-7.67 2.01 -7.34 1.02 -7 0 C-3.86650268 -1.04449911 -3.01031744 -0.93423645 0 0 Z " fill="#1395CA" transform="translate(96,111)"/>
<path d="M0 0 C0.99 0.33 1.98 0.66 3 1 C1.73058503 4.91402949 0.48832306 6.79072873 -3 9 C-3 7.68 -3 6.36 -3 5 C-2.01 5 -1.02 5 0 5 C0 3.35 0 1.7 0 0 Z " fill="#6192B6" transform="translate(92,69)"/>
<path d="M0 0 C0.66 0.33 1.32 0.66 2 1 C1.67 2.65 1.34 4.3 1 6 C-0.65 5.67 -2.3 5.34 -4 5 C-4 4.01 -4 3.02 -4 2 C-2.02 2.495 -2.02 2.495 0 3 C0 2.01 0 1.02 0 0 Z " fill="#1D5D9A" transform="translate(175,22)"/>
<path d="M0 0 C2.9375 0.75 2.9375 0.75 6 2 C6.875 4.125 6.875 4.125 7 6 C5.68 5.67 4.36 5.34 3 5 C3 4.34 3 3.68 3 3 C2.01 2.67 1.02 2.34 0 2 C0 1.34 0 0.68 0 0 Z " fill="#226694" transform="translate(164,14)"/>
<path d="M0 0 C-2 2 -2 2 -4.3828125 2.1953125 C-5.28773438 2.17210937 -6.19265625 2.14890625 -7.125 2.125 C-8.49011719 2.09792969 -8.49011719 2.09792969 -9.8828125 2.0703125 C-10.58148438 2.04710937 -11.28015625 2.02390625 -12 2 C-12 1.67 -12 1.34 -12 1 C-10.56496445 0.63597631 -9.12683494 0.28413409 -7.6875 -0.0625 C-6.88699219 -0.25972656 -6.08648437 -0.45695313 -5.26171875 -0.66015625 C-3 -1 -3 -1 0 0 Z " fill="#86C7DD" transform="translate(144,227)"/>
<path d="M0 0 C6.75 -0.125 6.75 -0.125 9 1 C8.67 1.99 8.34 2.98 8 4 C5.36 3.01 2.72 2.02 0 1 C0 0.67 0 0.34 0 0 Z " fill="#1490BD" transform="translate(103,186)"/>
<path d="M0 0 C-0.66 1.98 -1.32 3.96 -2 6 C-2.66 6 -3.32 6 -4 6 C-4.33 6.66 -4.66 7.32 -5 8 C-5.36625971 3.48279689 -5.36625971 3.48279689 -3.625 1.1875 C-2 0 -2 0 0 0 Z " fill="#2D8EB0" transform="translate(188,178)"/>
<path d="M0 0 C-0.33 0.99 -0.66 1.98 -1 3 C-3.97 2.505 -3.97 2.505 -7 2 C-7 1.34 -7 0.68 -7 0 C-3.86650268 -1.04449911 -3.01031744 -0.93423645 0 0 Z " fill="#58A4C4" transform="translate(151,225)"/>
<path d="M0 0 C-1.26607607 0.53229326 -2.53810412 1.05044544 -3.8125 1.5625 C-4.52019531 1.85253906 -5.22789062 2.14257812 -5.95703125 2.44140625 C-8 3 -8 3 -11 2 C-7.75267347 -1.24732653 -4.25451414 -1.41817138 0 0 Z " fill="#67B0D0" transform="translate(160,207)"/>
<path d="M0 0 C0.33 0.66 0.66 1.32 1 2 C0.01 3.32 -0.98 4.64 -2 6 C-2.99 5.67 -3.98 5.34 -5 5 C-4.1875 3.0625 -4.1875 3.0625 -3 1 C-2.01 0.67 -1.02 0.34 0 0 Z " fill="#1B8CB9" transform="translate(193,81)"/>
<path d="M0 0 C2.9375 1.25 2.9375 1.25 6 3 C6.875 5.1875 6.875 5.1875 7 7 C4.13302508 5.71480435 2.02392288 4.42870746 0 2 C0 1.34 0 0.68 0 0 Z " fill="#1C5C8C" transform="translate(55,72)"/>
<path d="M0 0 C0.66 0 1.32 0 2 0 C2 1.65 2 3.3 2 5 C0.68 5 -0.64 5 -2 5 C-2 4.01 -2 3.02 -2 2 C-1.34 2 -0.68 2 0 2 C0 1.34 0 0.68 0 0 Z " fill="#37749C" transform="translate(94,64)"/>
<path d="M0 0 C1.32 0.33 2.64 0.66 4 1 C4 2.65 4 4.3 4 6 C3.34 6 2.68 6 2 6 C1.34 4.02 0.68 2.04 0 0 Z " fill="#0E8EC9" transform="translate(50,192)"/>
<path d="M0 0 C4.875 3.625 4.875 3.625 6 7 C3.5625 6.3125 3.5625 6.3125 1 5 C0.1875 2.375 0.1875 2.375 0 0 Z " fill="#85B1C4" transform="translate(181,25)"/>
<path d="M0 0 C0.66 0.33 1.32 0.66 2 1 C0.8125 3 0.8125 3 -1 5 C-3.6875 5.25 -3.6875 5.25 -6 5 C-4.00856305 2.01284458 -3.23356015 1.21258505 0 0 Z " fill="#2D6C98" transform="translate(75,22)"/>
</svg>
